<svg xmlns="http://www.w3.org/2000/svg" width="19.27" height="22.482" viewBox="0 0 19.27 22.482">
  <g id="Group_3018" data-name="Group 3018" transform="translate(-19.967 -16.966)">
    <g id="Group_2596" data-name="Group 2596" transform="translate(0)">
      <g id="user_23_" data-name="user (23)" transform="translate(19.967 16.966)">
        <path id="Path_365" data-name="Path 365" d="M96.038,5.353A5.353,5.353,0,1,1,90.685,0,5.353,5.353,0,0,1,96.038,5.353Zm0,0" transform="translate(-81.05)" fill="#98aef6"/>
        <path id="Path_366" data-name="Path 366" d="M14.185,256h-9.1A5.091,5.091,0,0,0,0,261.085v3.747a.8.8,0,0,0,.8.8H18.467a.8.8,0,0,0,.8-.8v-3.747A5.091,5.091,0,0,0,14.185,256Zm0,0" transform="translate(0 -243.153)" fill="#98aef6"/>
      </g>
    </g>
  </g>
</svg>
