<svg xmlns="http://www.w3.org/2000/svg" width="19.59" height="19.589" viewBox="0 0 19.59 19.589">
  <g id="Group_3014" data-name="Group 3014" transform="translate(0.514 -4.42)">
    <g id="Group_2596" data-name="Group 2596" transform="translate(0 0)">
      <g id="log-out" transform="translate(-0.514 4.42)">
        <path id="Path_624" data-name="Path 624" d="M12.243,10.611a.816.816,0,0,0-.816.816v3.265a.817.817,0,0,1-.816.816H8.162V3.265A1.645,1.645,0,0,0,7.051,1.713l-.242-.081h3.8a.817.817,0,0,1,.816.816V4.9a.816.816,0,1,0,1.632,0V2.449A2.452,2.452,0,0,0,10.611,0H1.837a.638.638,0,0,0-.087.018C1.71.015,1.672,0,1.632,0A1.634,1.634,0,0,0,0,1.632V16.324a1.645,1.645,0,0,0,1.112,1.552l4.912,1.637a1.69,1.69,0,0,0,.506.076,1.634,1.634,0,0,0,1.632-1.632v-.816h2.449a2.452,2.452,0,0,0,2.449-2.449V11.427a.816.816,0,0,0-.816-.816Z" fill="#98aef6"/>
        <path id="Path_625" data-name="Path 625" d="M21.739,8.5,18.474,5.239a.816.816,0,0,0-1.393.577V8.265H13.816a.816.816,0,0,0,0,1.632h3.265v2.449a.816.816,0,0,0,1.393.577l3.265-3.265a.815.815,0,0,0,0-1.154Z" transform="translate(-2.389 -0.919)" fill="#98aef6"/>
      </g>
    </g>
  </g>
</svg>
