<svg xmlns="http://www.w3.org/2000/svg" width="133.936" height="141.548" viewBox="0 0 133.936 141.548">
  <g id="Group_17" data-name="Group 17" transform="translate(0)">
    <ellipse id="Ellipse_37" data-name="Ellipse 37" cx="3.024" cy="3.024" rx="3.024" ry="3.024" transform="translate(127.887 0)" fill="#1794d7"/>
    <path id="Path_46" data-name="Path 46" d="M-252.631,778.354a3.024,3.024,0,0,0,3.023-3.025,3.022,3.022,0,0,0-3.023-3.024,3.024,3.024,0,0,0-3.026,3.024A3.026,3.026,0,0,0-252.631,778.354Z" transform="translate(383.543 -752.947)" fill="#1794d7"/>
    <ellipse id="Ellipse_38" data-name="Ellipse 38" cx="3.024" cy="3.024" rx="3.024" ry="3.024" transform="translate(127.887 38.714)" fill="#1794d7"/>
    <ellipse id="Ellipse_39" data-name="Ellipse 39" cx="3.024" cy="3.024" rx="3.024" ry="3.024" transform="translate(127.887 58.071)" fill="#1794d7"/>
    <ellipse id="Ellipse_40" data-name="Ellipse 40" cx="3.024" cy="3.024" rx="3.024" ry="3.024" transform="translate(127.887 77.428)" fill="#1794d7"/>
    <ellipse id="Ellipse_41" data-name="Ellipse 41" cx="3.024" cy="3.024" rx="3.024" ry="3.024" transform="translate(127.887 96.785)" fill="#1794d7"/>
    <path id="Path_47" data-name="Path 47" d="M-252.631,823.076a3.024,3.024,0,0,0,3.023-3.026,3.024,3.024,0,0,0-3.023-3.025,3.026,3.026,0,0,0-3.026,3.025A3.026,3.026,0,0,0-252.631,823.076Z" transform="translate(383.543 -700.884)" fill="#1794d7"/>
    <ellipse id="Ellipse_42" data-name="Ellipse 42" cx="3.024" cy="3.024" rx="3.024" ry="3.024" transform="translate(127.887 135.499)" fill="#1794d7"/>
    <path id="Path_48" data-name="Path 48" d="M-244.193,769.41a3.026,3.026,0,0,0,3.026-3.026,3.024,3.024,0,0,0-3.026-3.023,3.022,3.022,0,0,0-3.023,3.023A3.024,3.024,0,0,0-244.193,769.41Z" transform="translate(356.834 -763.36)" fill="#1794d7"/>
    <path id="Path_49" data-name="Path 49" d="M-244.193,778.354a3.026,3.026,0,0,0,3.026-3.025,3.024,3.024,0,0,0-3.026-3.024,3.022,3.022,0,0,0-3.023,3.024A3.024,3.024,0,0,0-244.193,778.354Z" transform="translate(356.834 -752.947)" fill="#1794d7"/>
    <path id="Path_50" data-name="Path 50" d="M-244.193,787.3a3.026,3.026,0,0,0,3.026-3.026,3.025,3.025,0,0,0-3.026-3.023,3.024,3.024,0,0,0-3.023,3.023A3.024,3.024,0,0,0-244.193,787.3Z" transform="translate(356.834 -742.535)" fill="#1794d7"/>
    <path id="Path_51" data-name="Path 51" d="M-244.193,796.242a3.025,3.025,0,0,0,3.026-3.023,3.026,3.026,0,0,0-3.026-3.026,3.024,3.024,0,0,0-3.023,3.026A3.023,3.023,0,0,0-244.193,796.242Z" transform="translate(356.834 -732.122)" fill="#1794d7"/>
    <path id="Path_52" data-name="Path 52" d="M-244.193,805.186a3.024,3.024,0,0,0,3.026-3.023,3.026,3.026,0,0,0-3.026-3.025,3.024,3.024,0,0,0-3.023,3.025A3.022,3.022,0,0,0-244.193,805.186Z" transform="translate(356.834 -721.709)" fill="#1794d7"/>
    <path id="Path_53" data-name="Path 53" d="M-244.193,814.13a3.024,3.024,0,0,0,3.026-3.023,3.026,3.026,0,0,0-3.026-3.026,3.024,3.024,0,0,0-3.023,3.026A3.022,3.022,0,0,0-244.193,814.13Z" transform="translate(356.834 -711.297)" fill="#1794d7"/>
    <path id="Path_54" data-name="Path 54" d="M-244.193,823.076a3.026,3.026,0,0,0,3.026-3.026,3.026,3.026,0,0,0-3.026-3.025,3.024,3.024,0,0,0-3.023,3.025A3.024,3.024,0,0,0-244.193,823.076Z" transform="translate(356.834 -700.884)" fill="#1794d7"/>
    <path id="Path_55" data-name="Path 55" d="M-235.748,769.41a3.025,3.025,0,0,0,3.023-3.026,3.024,3.024,0,0,0-3.023-3.023,3.024,3.024,0,0,0-3.026,3.023A3.026,3.026,0,0,0-235.748,769.41Z" transform="translate(330.121 -763.36)" fill="#1794d7"/>
    <path id="Path_56" data-name="Path 56" d="M-235.748,778.354a3.025,3.025,0,0,0,3.023-3.025,3.024,3.024,0,0,0-3.023-3.024,3.024,3.024,0,0,0-3.026,3.024A3.026,3.026,0,0,0-235.748,778.354Z" transform="translate(330.121 -752.947)" fill="#1794d7"/>
    <path id="Path_57" data-name="Path 57" d="M-235.748,787.3a3.025,3.025,0,0,0,3.023-3.026,3.025,3.025,0,0,0-3.023-3.023,3.025,3.025,0,0,0-3.026,3.023A3.026,3.026,0,0,0-235.748,787.3Z" transform="translate(330.121 -742.535)" fill="#1794d7"/>
    <path id="Path_58" data-name="Path 58" d="M-235.748,796.242a3.025,3.025,0,0,0,3.023-3.023,3.025,3.025,0,0,0-3.023-3.026,3.026,3.026,0,0,0-3.026,3.026A3.025,3.025,0,0,0-235.748,796.242Z" transform="translate(330.121 -732.122)" fill="#1794d7"/>
    <path id="Path_59" data-name="Path 59" d="M-235.748,805.186a3.023,3.023,0,0,0,3.023-3.023,3.025,3.025,0,0,0-3.023-3.025,3.026,3.026,0,0,0-3.026,3.025A3.024,3.024,0,0,0-235.748,805.186Z" transform="translate(330.121 -721.709)" fill="#1794d7"/>
    <path id="Path_60" data-name="Path 60" d="M-235.748,814.13a3.023,3.023,0,0,0,3.023-3.023,3.025,3.025,0,0,0-3.023-3.026,3.026,3.026,0,0,0-3.026,3.026A3.024,3.024,0,0,0-235.748,814.13Z" transform="translate(330.121 -711.297)" fill="#1794d7"/>
    <path id="Path_61" data-name="Path 61" d="M-227.306,769.41a3.024,3.024,0,0,0,3.023-3.026,3.022,3.022,0,0,0-3.023-3.023,3.024,3.024,0,0,0-3.026,3.023A3.026,3.026,0,0,0-227.306,769.41Z" transform="translate(303.409 -763.36)" fill="#1794d7"/>
    <path id="Path_62" data-name="Path 62" d="M-227.306,778.354a3.024,3.024,0,0,0,3.023-3.025,3.022,3.022,0,0,0-3.023-3.024,3.024,3.024,0,0,0-3.026,3.024A3.026,3.026,0,0,0-227.306,778.354Z" transform="translate(303.409 -752.947)" fill="#1794d7"/>
    <path id="Path_63" data-name="Path 63" d="M-227.306,787.3a3.024,3.024,0,0,0,3.023-3.026,3.024,3.024,0,0,0-3.023-3.023,3.025,3.025,0,0,0-3.026,3.023A3.026,3.026,0,0,0-227.306,787.3Z" transform="translate(303.409 -742.535)" fill="#1794d7"/>
    <path id="Path_64" data-name="Path 64" d="M-227.306,796.242a3.023,3.023,0,0,0,3.023-3.023,3.024,3.024,0,0,0-3.023-3.026,3.026,3.026,0,0,0-3.026,3.026A3.025,3.025,0,0,0-227.306,796.242Z" transform="translate(303.409 -732.122)" fill="#1794d7"/>
    <path id="Path_65" data-name="Path 65" d="M-227.306,805.186a3.022,3.022,0,0,0,3.023-3.023,3.024,3.024,0,0,0-3.023-3.025,3.026,3.026,0,0,0-3.026,3.025A3.024,3.024,0,0,0-227.306,805.186Z" transform="translate(303.409 -721.709)" fill="#1794d7"/>
    <path id="Path_66" data-name="Path 66" d="M-218.868,769.41a3.026,3.026,0,0,0,3.026-3.026,3.024,3.024,0,0,0-3.026-3.023,3.022,3.022,0,0,0-3.023,3.023A3.024,3.024,0,0,0-218.868,769.41Z" transform="translate(276.7 -763.36)" fill="#1794d7"/>
    <path id="Path_67" data-name="Path 67" d="M-218.868,778.354a3.026,3.026,0,0,0,3.026-3.025,3.024,3.024,0,0,0-3.026-3.024,3.022,3.022,0,0,0-3.023,3.024A3.024,3.024,0,0,0-218.868,778.354Z" transform="translate(276.7 -752.947)" fill="#1794d7"/>
    <path id="Path_68" data-name="Path 68" d="M-218.868,787.3a3.026,3.026,0,0,0,3.026-3.026,3.025,3.025,0,0,0-3.026-3.023,3.024,3.024,0,0,0-3.023,3.023A3.024,3.024,0,0,0-218.868,787.3Z" transform="translate(276.7 -742.535)" fill="#1794d7"/>
    <path id="Path_69" data-name="Path 69" d="M-218.868,796.242a3.025,3.025,0,0,0,3.026-3.023,3.026,3.026,0,0,0-3.026-3.026,3.024,3.024,0,0,0-3.023,3.026A3.023,3.023,0,0,0-218.868,796.242Z" transform="translate(276.7 -732.122)" fill="#1794d7"/>
    <path id="Path_70" data-name="Path 70" d="M-210.423,769.41a3.024,3.024,0,0,0,3.023-3.026,3.022,3.022,0,0,0-3.023-3.023,3.024,3.024,0,0,0-3.026,3.023A3.026,3.026,0,0,0-210.423,769.41Z" transform="translate(249.988 -763.36)" fill="#1794d7"/>
    <path id="Path_71" data-name="Path 71" d="M-210.423,778.354a3.024,3.024,0,0,0,3.023-3.025,3.022,3.022,0,0,0-3.023-3.024,3.024,3.024,0,0,0-3.026,3.024A3.026,3.026,0,0,0-210.423,778.354Z" transform="translate(249.988 -752.947)" fill="#1794d7"/>
    <path id="Path_72" data-name="Path 72" d="M-210.423,787.3a3.024,3.024,0,0,0,3.023-3.026,3.024,3.024,0,0,0-3.023-3.023,3.025,3.025,0,0,0-3.026,3.023A3.026,3.026,0,0,0-210.423,787.3Z" transform="translate(249.988 -742.535)" fill="#1794d7"/>
    <path id="Path_73" data-name="Path 73" d="M-201.985,769.41a3.026,3.026,0,0,0,3.026-3.026,3.024,3.024,0,0,0-3.026-3.023,3.022,3.022,0,0,0-3.023,3.023A3.024,3.024,0,0,0-201.985,769.41Z" transform="translate(223.278 -763.36)" fill="#1794d7"/>
    <path id="Path_74" data-name="Path 74" d="M-201.985,778.354a3.026,3.026,0,0,0,3.026-3.025,3.024,3.024,0,0,0-3.026-3.024,3.022,3.022,0,0,0-3.023,3.024A3.024,3.024,0,0,0-201.985,778.354Z" transform="translate(223.278 -752.947)" fill="#1794d7"/>
    <path id="Path_75" data-name="Path 75" d="M-193.543,769.41a3.026,3.026,0,0,0,3.026-3.026,3.024,3.024,0,0,0-3.026-3.023,3.024,3.024,0,0,0-3.023,3.023A3.025,3.025,0,0,0-193.543,769.41Z" transform="translate(196.566 -763.36)" fill="#1794d7"/>
  </g>
</svg>
