<svg id="clock-circular-outline_1_" data-name="clock-circular-outline (1)" xmlns="http://www.w3.org/2000/svg" width="44.764" height="44.764" viewBox="0 0 44.764 44.764">
  <g id="Group_77" data-name="Group 77">
    <path id="Path_226" data-name="Path 226" d="M22.382,0A22.382,22.382,0,1,0,44.764,22.382,22.407,22.407,0,0,0,22.382,0Zm0,39.871a17.49,17.49,0,1,1,17.49-17.49A17.509,17.509,0,0,1,22.382,39.871Z" fill="#87a2fa"/>
    <path id="Path_227" data-name="Path 227" d="M260.581,150.532v-9.381a1.9,1.9,0,1,0-3.792,0v9.986c0,.03.007.058.009.088a1.885,1.885,0,0,0,.546,1.433l7.062,7.061a1.9,1.9,0,1,0,2.681-2.681Z" transform="translate(-236.262 -128.123)" fill="#87a2fa"/>
  </g>
</svg>
