<svg xmlns="http://www.w3.org/2000/svg" width="224.85" height="224.85" viewBox="0 0 224.85 224.85">
  <g id="Group_109" data-name="Group 109" transform="translate(-1135 -2594.075)">
    <circle id="Ellipse_63" data-name="Ellipse 63" cx="112.425" cy="112.425" r="112.425" transform="translate(1135 2594.075)" fill="#e6ecff"/>
    <g id="destination_1_" data-name="destination (1)" transform="translate(1173.645 2637.549)">
      <ellipse id="Ellipse_64" data-name="Ellipse 64" cx="21.88" cy="8.916" rx="21.88" ry="8.916" transform="translate(12.165 118.05)" fill="#f0b0ab"/>
      <path id="Path_263" data-name="Path 263" d="M86.385,457.873c-3.417,3.109-11.072,5.277-19.973,5.277s-16.555-2.167-19.973-5.277a5.012,5.012,0,0,0-1.907,3.64c0,4.925,9.8,8.917,21.88,8.917s21.88-3.992,21.88-8.917A5.016,5.016,0,0,0,86.385,457.873Z" transform="translate(-32.369 -334.548)" fill="#ea8b84"/>
      <path id="Path_264" data-name="Path 264" d="M39.53,161.41A31.79,31.79,0,0,0,7.74,193.2c0,26.736,31.79,51.335,31.79,51.335s31.79-24.6,31.79-51.335A31.79,31.79,0,0,0,39.53,161.41Zm0,44.469A12.679,12.679,0,1,1,52.209,193.2,12.679,12.679,0,0,1,39.53,205.879Z" transform="translate(-5.486 -117.935)" fill="#98aef6"/>
      <path id="Path_265" data-name="Path 265" d="M115.893,161.41a32.034,32.034,0,0,0-3.64.209A31.793,31.793,0,0,1,140.4,193.2c0,21.1-19.806,40.875-28.15,48.268,2.226,1.973,3.64,3.068,3.64,3.068s31.79-24.6,31.79-51.335A31.79,31.79,0,0,0,115.893,161.41Z" transform="translate(-81.849 -117.935)" fill="#87a2fa"/>
      <ellipse id="Ellipse_65" data-name="Ellipse 65" cx="16.816" cy="6.853" rx="16.816" ry="6.853" transform="translate(94.737 59.337)" fill="#f0b0ab"/>
      <path id="Path_266" data-name="Path 266" d="M382.172,232.233c-2.975,1.93-8.241,3.213-14.246,3.213s-11.271-1.283-14.246-3.213c-1.626,1.055-2.57,2.3-2.57,3.64,0,3.785,7.529,6.853,16.816,6.853s16.816-3.068,16.816-6.853C384.742,234.535,383.8,233.288,382.172,232.233Z" transform="translate(-256.371 -169.683)" fill="#ea8b84"/>
      <path id="Path_267" data-name="Path 267" d="M347.267,7.508a24.432,24.432,0,0,0-24.432,24.433c0,20.548,24.432,39.455,24.432,39.455S371.7,52.489,371.7,31.941A24.433,24.433,0,0,0,347.267,7.508Zm0,34.177a9.745,9.745,0,1,1,9.745-9.745A9.745,9.745,0,0,1,347.267,41.685Z" transform="translate(-235.712 -5.486)" fill="#98aef6"/>
      <path id="Path_268" data-name="Path 268" d="M403.672,7.508a24.613,24.613,0,0,0-3.64.27A24.438,24.438,0,0,1,420.824,31.94c0,15.547-13.984,30.152-20.792,36.341,2.19,1.991,3.64,3.114,3.64,3.114S428.1,52.489,428.1,31.94A24.432,24.432,0,0,0,403.672,7.508Z" transform="translate(-292.117 -5.486)" fill="#87a2fa"/>
      <path id="Path_269" data-name="Path 269" d="M34.044,153.9A33.85,33.85,0,0,0,.232,187.714c0,11.576,5.506,24.021,16.367,36.992,1.614,1.927,3.222,3.713,4.765,5.342-7.012,1.914-11.222,5.353-11.222,9.366,0,7.105,12.315,10.939,23.9,10.939s23.9-3.834,23.9-10.939c0-4.01-4.209-7.45-11.216-9.365a110.091,110.091,0,0,0,8.67-10.311,2.022,2.022,0,1,0-3.256-2.4A108.576,108.576,0,0,1,41.7,229.407a2.022,2.022,0,0,0-.882.875c-2.92,2.869-5.377,5-6.77,6.161-1.379-1.152-3.8-3.252-6.681-6.083a2.023,2.023,0,0,0-1.014-1.007c-9.16-9.213-22.075-25.13-22.075-41.638a29.768,29.768,0,1,1,59.535,0c0,7.168-2.442,14.909-7.259,23.008a2.022,2.022,0,0,0,3.476,2.067c5.194-8.733,7.828-17.17,7.828-25.075A33.851,33.851,0,0,0,34.044,153.9Zm0,87.17a2.019,2.019,0,0,0,1.238-.423,102.729,102.729,0,0,0,8.131-7.231c6.82,1.391,10.488,4.069,10.488,6,0,1.44-1.973,3.138-5.15,4.432a40.315,40.315,0,0,1-14.708,2.462c-12.122,0-19.858-4.084-19.858-6.895,0-1.93,3.668-4.607,10.493-6a102.882,102.882,0,0,0,8.128,7.233A2.018,2.018,0,0,0,34.044,241.072Z" transform="translate(0 -112.45)"/>
      <path id="Path_270" data-name="Path 270" d="M74.256,234.109a2.023,2.023,0,0,0-2.5,1.386,14.706,14.706,0,1,0,5.337-7.719,2.022,2.022,0,1,0,2.422,3.239,10.629,10.629,0,1,1-3.871,5.6A2.022,2.022,0,0,0,74.256,234.109Z" transform="translate(-51.842 -164.292)"/>
      <path id="Path_271" data-name="Path 271" d="M360.619,66.19c0-3.2-3.012-5.873-8.223-7.441,1.029-1.1,2.088-2.293,3.152-3.563,8.419-10.055,12.688-19.722,12.688-28.732a26.459,26.459,0,0,0-50.83-10.3,2.022,2.022,0,0,0,3.724,1.576,22.415,22.415,0,0,1,43.061,8.722c0,16.711-17.544,32.721-22.411,36.839-1.073-.907-2.761-2.39-4.74-4.33a2.02,2.02,0,0,0-.9-.894c-6.982-7.03-16.77-19.115-16.77-31.616a2.022,2.022,0,1,0-4.044,0c0,9.01,4.269,18.676,12.688,28.732,1.063,1.269,2.122,2.458,3.15,3.562-5.213,1.566-8.222,4.232-8.222,7.442,0,2.707,2.2,5.094,6.185,6.718a38.2,38.2,0,0,0,25.308,0C358.422,71.284,360.619,68.9,360.619,66.19ZM341.78,71.021c-9.572,0-14.794-3.191-14.794-4.831,0-1.068,2.375-3.023,7.448-4.1a79.013,79.013,0,0,0,6.109,5.421,2.023,2.023,0,0,0,2.475,0,78.923,78.923,0,0,0,6.109-5.42,18.528,18.528,0,0,1,5.587,2.022c1.164.709,1.86,1.487,1.86,2.079C356.574,67.83,351.353,71.021,341.78,71.021Z" transform="translate(-230.226 0)"/>
      <path id="Path_272" data-name="Path 272" d="M393.391,66.3a11.767,11.767,0,1,0-11.767,11.767A11.78,11.78,0,0,0,393.391,66.3Zm-19.49,0a7.723,7.723,0,1,1,7.723,7.723A7.732,7.732,0,0,1,373.9,66.3Z" transform="translate(-270.069 -39.844)"/>
      <path id="Path_273" data-name="Path 273" d="M303.44,242.283a2.022,2.022,0,1,0,0-4.044h-.923a15.259,15.259,0,0,0-2.009.133,2.022,2.022,0,1,0,.534,4.009,11.241,11.241,0,0,1,1.475-.1h.923Z" transform="translate(-218.116 -174.071)"/>
      <path id="Path_274" data-name="Path 274" d="M278.6,463.5h-.009l-2.671.012a2.022,2.022,0,0,0,.009,4.044h.009l2.671-.012a2.022,2.022,0,0,0-.009-4.044Z" transform="translate(-199.965 -338.656)"/>
      <path id="Path_275" data-name="Path 275" d="M312.335,339.533a2.022,2.022,0,0,0,0-4.044h-2.671a2.022,2.022,0,1,0,0,4.044Z" transform="translate(-224.611 -245.127)"/>
      <path id="Path_276" data-name="Path 276" d="M266.54,256.78a2.022,2.022,0,0,0,2.822-.463,11.176,11.176,0,0,1,1.5-1.69,2.022,2.022,0,1,0-2.742-2.973,15.2,15.2,0,0,0-2.038,2.3A2.023,2.023,0,0,0,266.54,256.78Z" transform="translate(-193.964 -183.482)"/>
      <path id="Path_277" data-name="Path 277" d="M318.27,463.314h-.009l-2.671.012a2.022,2.022,0,0,0,.009,4.044h.009l2.671-.012a2.022,2.022,0,0,0-.009-4.044Z" transform="translate(-228.948 -338.523)"/>
      <path id="Path_278" data-name="Path 278" d="M238.938,463.675h-.009l-2.671.012a2.022,2.022,0,0,0,.009,4.044h.009l2.671-.012a2.022,2.022,0,0,0-.009-4.044Z" transform="translate(-170.983 -338.787)"/>
      <path id="Path_279" data-name="Path 279" d="M275.643,327.606a2.023,2.023,0,0,0,1.081-3.733,11.175,11.175,0,0,1-1.776-1.391,2.022,2.022,0,0,0-2.8,2.915,15.19,15.19,0,0,0,2.422,1.9A2.006,2.006,0,0,0,275.643,327.606Z" transform="translate(-198.221 -235.211)"/>
      <path id="Path_280" data-name="Path 280" d="M260.845,290.651a11.176,11.176,0,0,1-.2-2.132v-.112a2.022,2.022,0,0,0-2-2.045h-.024a2.022,2.022,0,0,0-2.022,2v.159a15.226,15.226,0,0,0,.279,2.905,2.022,2.022,0,0,0,3.97-.774Z" transform="translate(-187.314 -209.232)"/>
      <path id="Path_281" data-name="Path 281" d="M352,339.533a2.022,2.022,0,1,0,0-4.044H349.33a2.022,2.022,0,0,0,0,4.044Z" transform="translate(-253.593 -245.127)"/>
      <path id="Path_282" data-name="Path 282" d="M469.124,349.175a2.022,2.022,0,0,0,1.255-3.609,19.224,19.224,0,0,0-2.476-1.66,2.022,2.022,0,1,0-1.985,3.524,15.245,15.245,0,0,1,1.954,1.311A2.011,2.011,0,0,0,469.124,349.175Z" transform="translate(-339.504 -251.086)"/>
      <path id="Path_283" data-name="Path 283" d="M436.983,462.231a15.22,15.22,0,0,1-2.017.143l-.378,0a2.022,2.022,0,0,0,.009,4.044h.01l.378,0a19.3,19.3,0,0,0,2.552-.18,2.022,2.022,0,1,0-.553-4.006Z" transform="translate(-315.894 -337.718)"/>
      <path id="Path_284" data-name="Path 284" d="M472.612,445.809a15.254,15.254,0,0,1-1.826,1.488,2.022,2.022,0,1,0,2.3,3.324,19.343,19.343,0,0,0,2.311-1.883,2.022,2.022,0,0,0-2.79-2.929Z" transform="translate(-343.178 -325.325)"/>
      <path id="Path_285" data-name="Path 285" d="M496.759,411.021a2.023,2.023,0,0,0-2.361,1.613,15.141,15.141,0,0,1-.614,2.27,2.022,2.022,0,1,0,3.81,1.358,19.18,19.18,0,0,0,.779-2.88A2.023,2.023,0,0,0,496.759,411.021Z" transform="translate(-360.531 -300.29)"/>
      <path id="Path_286" data-name="Path 286" d="M492.579,372.455a2.023,2.023,0,0,0-.977,2.688,15.041,15.041,0,0,1,.824,2.2,2.022,2.022,0,1,0,3.887-1.116,19.093,19.093,0,0,0-1.047-2.8A2.022,2.022,0,0,0,492.579,372.455Z" transform="translate(-358.883 -271.998)"/>
      <path id="Path_287" data-name="Path 287" d="M391.667,339.533a2.022,2.022,0,1,0,0-4.044H389a2.022,2.022,0,1,0,0,4.044Z" transform="translate(-282.576 -245.127)"/>
      <path id="Path_288" data-name="Path 288" d="M357.935,463.134h-.009l-2.671.012a2.022,2.022,0,0,0,.009,4.044h.009l2.671-.012a2.022,2.022,0,0,0-.009-4.044Z" transform="translate(-257.929 -338.392)"/>
      <path id="Path_289" data-name="Path 289" d="M430.561,339.535q.343,0,.682.015l.091,0a2.022,2.022,0,0,0,.088-4.042c-.286-.013-.576-.019-.861-.019h-1.9a2.022,2.022,0,0,0,0,4.044Z" transform="translate(-311.558 -245.129)"/>
      <path id="Path_290" data-name="Path 290" d="M397.6,462.955h-.009l-2.671.012a2.022,2.022,0,0,0,.009,4.044h.009l2.671-.012a2.022,2.022,0,0,0-.009-4.044Z" transform="translate(-286.911 -338.261)"/>
    </g>
  </g>
</svg>
