<svg xmlns="http://www.w3.org/2000/svg" width="61" height="61" viewBox="0 0 61 61">
  <g id="Group_81" data-name="Group 81" transform="translate(-262.5 -4560.5)">
    <rect id="Rectangle_720" data-name="Rectangle 720" width="61" height="61" transform="translate(262.5 4560.5)" fill="none" opacity="0"/>
    <g id="trolley-cart" transform="matrix(0.966, -0.259, 0.259, 0.966, 207.895, 4590.212)">
      <path id="Path_349" data-name="Path 349" d="M72.036,354a7.032,7.032,0,1,0,7.032,7.032A7.032,7.032,0,0,0,72.036,354Zm.388,8.22a1.335,1.335,0,1,1,.921-1.538,1.335,1.335,0,0,1-.921,1.538Z" transform="translate(-0.004 -322.493)" fill="#1794d7"/>
      <path id="Path_350" data-name="Path 350" d="M65.993,2.626l4.7,1.25V28.934a9.675,9.675,0,0,1,2.67,0V2.849a1.336,1.336,0,0,0-.993-1.291L66.678.045a1.335,1.335,0,0,0-.685,2.581Z" transform="translate(0 0)" fill="#1794d7"/>
      <path id="Path_351" data-name="Path 351" d="M223.068,124.4V114.339A1.336,1.336,0,0,0,221.733,113h-4.362v4.184a1.335,1.335,0,1,1-2.67,0V113h-4.362A1.336,1.336,0,0,0,209,114.339V124.4Z" transform="translate(-131.186 -102.945)" fill="#1794d7"/>
      <path id="Path_352" data-name="Path 352" d="M243.584,414.786a9.674,9.674,0,0,1-.77,5.716h10.521v1.513a1.335,1.335,0,1,0,2.67,0V420.5h3.65a1.336,1.336,0,0,0,1.335-1.335v-4.381Z" transform="translate(-161.986 -377.864)" fill="#1794d7"/>
      <path id="Path_353" data-name="Path 353" d="M211.917,281.132h15.424V271h-7.833v1.513a1.335,1.335,0,0,1-2.67,0V271H209v6.636A9.772,9.772,0,0,1,211.917,281.132Z" transform="translate(-131.186 -246.881)" fill="#1794d7"/>
    </g>
  </g>
</svg>
