<svg xmlns="http://www.w3.org/2000/svg" width="379.312" height="358.911" viewBox="0 0 379.312 358.911">
  <g id="Group_16" data-name="Group 16" transform="translate(-208.311 -567.939)">
    <g id="Group_8" data-name="Group 8" transform="translate(208.312 910.64)">
      <circle id="Ellipse_2" data-name="Ellipse 2" cx="8.105" cy="8.105" r="8.105" transform="translate(0 0)" fill="#ee6f57"/>
      <circle id="Ellipse_3" data-name="Ellipse 3" cx="8.105" cy="8.105" r="8.105" transform="translate(51.872 0)" fill="#ee6f57"/>
      <circle id="Ellipse_4" data-name="Ellipse 4" cx="8.105" cy="8.105" r="8.105" transform="translate(103.743 0)" fill="#ee6f57"/>
      <circle id="Ellipse_5" data-name="Ellipse 5" cx="8.105" cy="8.105" r="8.105" transform="translate(155.615 0)" fill="#ee6f57"/>
      <circle id="Ellipse_6" data-name="Ellipse 6" cx="8.105" cy="8.105" r="8.105" transform="translate(207.486 0)" fill="#ee6f57"/>
      <path id="Path_17" data-name="Path 17" d="M318.806,700.626a8.105,8.105,0,1,1-8.1-8.1A8.1,8.1,0,0,1,318.806,700.626Z" transform="translate(-43.239 -692.522)" fill="#ee6f57"/>
      <circle id="Ellipse_7" data-name="Ellipse 7" cx="8.105" cy="8.105" r="8.105" transform="translate(311.23 0)" fill="#ee6f57"/>
      <circle id="Ellipse_8" data-name="Ellipse 8" cx="8.105" cy="8.105" r="8.105" transform="translate(363.101 0)" fill="#ee6f57"/>
    </g>
    <g id="Group_9" data-name="Group 9" transform="translate(208.312 861.683)">
      <circle id="Ellipse_9" data-name="Ellipse 9" cx="8.105" cy="8.105" r="8.105" fill="#ee6f57"/>
      <circle id="Ellipse_10" data-name="Ellipse 10" cx="8.105" cy="8.105" r="8.105" transform="translate(51.872)" fill="#ee6f57"/>
      <circle id="Ellipse_11" data-name="Ellipse 11" cx="8.105" cy="8.105" r="8.105" transform="translate(103.743)" fill="#ee6f57"/>
      <circle id="Ellipse_12" data-name="Ellipse 12" cx="8.105" cy="8.105" r="8.105" transform="translate(155.615)" fill="#ee6f57"/>
      <circle id="Ellipse_13" data-name="Ellipse 13" cx="8.105" cy="8.105" r="8.105" transform="translate(207.486)" fill="#ee6f57"/>
      <path id="Path_18" data-name="Path 18" d="M318.806,682.829a8.105,8.105,0,1,1-8.1-8.1A8.1,8.1,0,0,1,318.806,682.829Z" transform="translate(-43.239 -674.724)" fill="#ee6f57"/>
      <circle id="Ellipse_14" data-name="Ellipse 14" cx="8.105" cy="8.105" r="8.105" transform="translate(311.23)" fill="#ee6f57"/>
      <circle id="Ellipse_15" data-name="Ellipse 15" cx="8.105" cy="8.105" r="8.105" transform="translate(363.101)" fill="#ee6f57"/>
    </g>
    <g id="Group_10" data-name="Group 10" transform="translate(208.312 812.726)">
      <circle id="Ellipse_16" data-name="Ellipse 16" cx="8.105" cy="8.105" r="8.105" transform="translate(0 0)" fill="#ee6f57"/>
      <circle id="Ellipse_17" data-name="Ellipse 17" cx="8.105" cy="8.105" r="8.105" transform="translate(51.872 0)" fill="#ee6f57"/>
      <circle id="Ellipse_18" data-name="Ellipse 18" cx="8.105" cy="8.105" r="8.105" transform="translate(103.743 0)" fill="#ee6f57"/>
      <circle id="Ellipse_19" data-name="Ellipse 19" cx="8.105" cy="8.105" r="8.105" transform="translate(155.615 0)" fill="#ee6f57"/>
      <circle id="Ellipse_20" data-name="Ellipse 20" cx="8.105" cy="8.105" r="8.105" transform="translate(207.486 0)" fill="#ee6f57"/>
      <path id="Path_19" data-name="Path 19" d="M318.806,665.031a8.105,8.105,0,1,1-8.1-8.1A8.1,8.1,0,0,1,318.806,665.031Z" transform="translate(-43.239 -656.927)" fill="#ee6f57"/>
      <circle id="Ellipse_21" data-name="Ellipse 21" cx="8.105" cy="8.105" r="8.105" transform="translate(311.23 0)" fill="#ee6f57"/>
      <circle id="Ellipse_22" data-name="Ellipse 22" cx="8.105" cy="8.105" r="8.105" transform="translate(363.101 0)" fill="#ee6f57"/>
    </g>
    <g id="Group_11" data-name="Group 11" transform="translate(208.311 763.767)">
      <path id="Path_20" data-name="Path 20" d="M224.521,647.235a8.105,8.105,0,1,1-8.1-8.106A8.1,8.1,0,0,1,224.521,647.235Z" transform="translate(-208.311 -639.129)" fill="#ee6f57"/>
      <path id="Path_21" data-name="Path 21" d="M243.378,647.235a8.105,8.105,0,1,1-8.1-8.106A8.1,8.1,0,0,1,243.378,647.235Z" transform="translate(-175.296 -639.129)" fill="#ee6f57"/>
      <path id="Path_22" data-name="Path 22" d="M262.235,647.235a8.105,8.105,0,1,1-8.1-8.106A8.1,8.1,0,0,1,262.235,647.235Z" transform="translate(-142.282 -639.129)" fill="#ee6f57"/>
      <path id="Path_23" data-name="Path 23" d="M281.092,647.235a8.105,8.105,0,1,1-8.1-8.106A8.1,8.1,0,0,1,281.092,647.235Z" transform="translate(-109.267 -639.129)" fill="#ee6f57"/>
      <path id="Path_24" data-name="Path 24" d="M299.949,647.235a8.105,8.105,0,1,1-8.1-8.106A8.1,8.1,0,0,1,299.949,647.235Z" transform="translate(-76.253 -639.129)" fill="#ee6f57"/>
      <path id="Path_25" data-name="Path 25" d="M318.806,647.235a8.105,8.105,0,1,1-8.1-8.106A8.1,8.1,0,0,1,318.806,647.235Z" transform="translate(-43.238 -639.129)" fill="#ee6f57"/>
      <path id="Path_26" data-name="Path 26" d="M337.663,647.235a8.105,8.105,0,1,1-8.1-8.106A8.1,8.1,0,0,1,337.663,647.235Z" transform="translate(-10.224 -639.129)" fill="#ee6f57"/>
      <path id="Path_27" data-name="Path 27" d="M356.52,647.235a8.105,8.105,0,1,1-8.1-8.106A8.1,8.1,0,0,1,356.52,647.235Z" transform="translate(22.791 -639.129)" fill="#ee6f57"/>
    </g>
    <g id="Group_12" data-name="Group 12" transform="translate(208.311 714.812)">
      <path id="Path_28" data-name="Path 28" d="M224.521,629.436a8.105,8.105,0,1,1-8.1-8.1A8.1,8.1,0,0,1,224.521,629.436Z" transform="translate(-208.311 -621.332)" fill="#ee6f57"/>
      <path id="Path_29" data-name="Path 29" d="M243.378,629.436a8.105,8.105,0,1,1-8.1-8.1A8.1,8.1,0,0,1,243.378,629.436Z" transform="translate(-175.296 -621.332)" fill="#ee6f57"/>
      <path id="Path_30" data-name="Path 30" d="M262.235,629.436a8.105,8.105,0,1,1-8.1-8.1A8.1,8.1,0,0,1,262.235,629.436Z" transform="translate(-142.282 -621.332)" fill="#ee6f57"/>
      <path id="Path_31" data-name="Path 31" d="M281.092,629.436a8.105,8.105,0,1,1-8.1-8.1A8.1,8.1,0,0,1,281.092,629.436Z" transform="translate(-109.267 -621.332)" fill="#ee6f57"/>
      <path id="Path_32" data-name="Path 32" d="M299.949,629.436a8.105,8.105,0,1,1-8.1-8.1A8.1,8.1,0,0,1,299.949,629.436Z" transform="translate(-76.253 -621.332)" fill="#ee6f57"/>
      <path id="Path_33" data-name="Path 33" d="M318.806,629.436a8.105,8.105,0,1,1-8.1-8.1A8.1,8.1,0,0,1,318.806,629.436Z" transform="translate(-43.238 -621.332)" fill="#ee6f57"/>
      <path id="Path_34" data-name="Path 34" d="M337.663,629.436a8.105,8.105,0,1,1-8.1-8.1A8.1,8.1,0,0,1,337.663,629.436Z" transform="translate(-10.224 -621.332)" fill="#ee6f57"/>
      <path id="Path_35" data-name="Path 35" d="M356.52,629.436a8.105,8.105,0,1,1-8.1-8.1A8.1,8.1,0,0,1,356.52,629.436Z" transform="translate(22.791 -621.332)" fill="#ee6f57"/>
    </g>
    <g id="Group_13" data-name="Group 13" transform="translate(208.311 665.853)">
      <path id="Path_36" data-name="Path 36" d="M224.521,611.641a8.105,8.105,0,1,1-8.1-8.107A8.1,8.1,0,0,1,224.521,611.641Z" transform="translate(-208.311 -603.534)" fill="#ee6f57"/>
      <path id="Path_37" data-name="Path 37" d="M243.378,611.641a8.105,8.105,0,1,1-8.1-8.107A8.1,8.1,0,0,1,243.378,611.641Z" transform="translate(-175.296 -603.534)" fill="#ee6f57"/>
      <path id="Path_38" data-name="Path 38" d="M262.235,611.641a8.105,8.105,0,1,1-8.1-8.107A8.1,8.1,0,0,1,262.235,611.641Z" transform="translate(-142.282 -603.534)" fill="#ee6f57"/>
      <path id="Path_39" data-name="Path 39" d="M281.092,611.641a8.105,8.105,0,1,1-8.1-8.107A8.1,8.1,0,0,1,281.092,611.641Z" transform="translate(-109.267 -603.534)" fill="#ee6f57"/>
      <path id="Path_40" data-name="Path 40" d="M299.949,611.641a8.105,8.105,0,1,1-8.1-8.107A8.1,8.1,0,0,1,299.949,611.641Z" transform="translate(-76.253 -603.534)" fill="#ee6f57"/>
      <path id="Path_41" data-name="Path 41" d="M318.806,611.641a8.105,8.105,0,1,1-8.1-8.107A8.1,8.1,0,0,1,318.806,611.641Z" transform="translate(-43.238 -603.534)" fill="#ee6f57"/>
      <path id="Path_42" data-name="Path 42" d="M337.663,611.641a8.105,8.105,0,1,1-8.1-8.107A8.1,8.1,0,0,1,337.663,611.641Z" transform="translate(-10.224 -603.534)" fill="#ee6f57"/>
      <path id="Path_43" data-name="Path 43" d="M356.52,611.641a8.105,8.105,0,1,1-8.1-8.107A8.1,8.1,0,0,1,356.52,611.641Z" transform="translate(22.791 -603.534)" fill="#ee6f57"/>
    </g>
    <g id="Group_14" data-name="Group 14" transform="translate(208.312 616.897)">
      <circle id="Ellipse_23" data-name="Ellipse 23" cx="8.105" cy="8.105" r="8.105" fill="#ee6f57"/>
      <circle id="Ellipse_24" data-name="Ellipse 24" cx="8.105" cy="8.105" r="8.105" transform="translate(51.872)" fill="#ee6f57"/>
      <circle id="Ellipse_25" data-name="Ellipse 25" cx="8.105" cy="8.105" r="8.105" transform="translate(103.743)" fill="#ee6f57"/>
      <circle id="Ellipse_26" data-name="Ellipse 26" cx="8.105" cy="8.105" r="8.105" transform="translate(155.615)" fill="#ee6f57"/>
      <circle id="Ellipse_27" data-name="Ellipse 27" cx="8.105" cy="8.105" r="8.105" transform="translate(207.486)" fill="#ee6f57"/>
      <path id="Path_44" data-name="Path 44" d="M318.806,593.841a8.105,8.105,0,1,1-8.1-8.1A8.1,8.1,0,0,1,318.806,593.841Z" transform="translate(-43.239 -585.737)" fill="#ee6f57"/>
      <circle id="Ellipse_28" data-name="Ellipse 28" cx="8.105" cy="8.105" r="8.105" transform="translate(311.23)" fill="#ee6f57"/>
      <circle id="Ellipse_29" data-name="Ellipse 29" cx="8.105" cy="8.105" r="8.105" transform="translate(363.101)" fill="#ee6f57"/>
    </g>
    <g id="Group_15" data-name="Group 15" transform="translate(208.312 567.939)">
      <circle id="Ellipse_30" data-name="Ellipse 30" cx="8.105" cy="8.105" r="8.105" transform="translate(0 0.001)" fill="#ee6f57"/>
      <circle id="Ellipse_31" data-name="Ellipse 31" cx="8.105" cy="8.105" r="8.105" transform="translate(51.872 0.001)" fill="#ee6f57"/>
      <circle id="Ellipse_32" data-name="Ellipse 32" cx="8.105" cy="8.105" r="8.105" transform="translate(103.743 0.001)" fill="#ee6f57"/>
      <circle id="Ellipse_33" data-name="Ellipse 33" cx="8.105" cy="8.105" r="8.105" transform="translate(155.615 0.001)" fill="#ee6f57"/>
      <circle id="Ellipse_34" data-name="Ellipse 34" cx="8.105" cy="8.105" r="8.105" transform="translate(207.486 0.001)" fill="#ee6f57"/>
      <path id="Path_45" data-name="Path 45" d="M318.806,576.045a8.105,8.105,0,1,1-8.1-8.106A8.1,8.1,0,0,1,318.806,576.045Z" transform="translate(-43.239 -567.939)" fill="#ee6f57"/>
      <circle id="Ellipse_35" data-name="Ellipse 35" cx="8.105" cy="8.105" r="8.105" transform="translate(311.23 0.001)" fill="#ee6f57"/>
      <circle id="Ellipse_36" data-name="Ellipse 36" cx="8.105" cy="8.105" r="8.105" transform="translate(363.101 0.001)" fill="#ee6f57"/>
    </g>
  </g>
</svg>
