<svg xmlns="http://www.w3.org/2000/svg" xmlns:xlink="http://www.w3.org/1999/xlink" width="224.85" height="224.85" viewBox="0 0 224.85 224.85">
  <defs>
    <clipPath id="clip-path">
      <circle id="Ellipse_67" data-name="Ellipse 67" cx="112.425" cy="112.425" r="112.425" transform="translate(-16489 -7915.118)" fill="#f0b0ab"/>
    </clipPath>
  </defs>
  <g id="Group_4340" data-name="Group 4340" transform="translate(-1135 -3074.075)">
    <circle id="Ellipse_66" data-name="Ellipse 66" cx="112.425" cy="112.425" r="112.425" transform="translate(1135 3074.075)" fill="#f0b0ab"/>
    <g id="Mask_Group_2" data-name="Mask Group 2" transform="translate(17624 10989.193)" clip-path="url(#clip-path)">
      <g id="XMLID_1062_" transform="translate(-16472.273 -7878.454)">
        <path id="XMLID_943_" d="M16.033,362.784l10.045-42.456a35.469,35.469,0,0,1,34.516-27.3h90.235a35.469,35.469,0,0,1,34.505,27.258l10.113,42.5Z" transform="translate(-10.042 -183.466)" fill="#87a2fa"/>
        <path id="XMLID_2426_" d="M245.858,239.634v19.951h0a21.162,21.162,0,0,1-29.927,0h0V239.634Z" transform="translate(-135.243 -150.025)" fill="#533b26"/>
        <path id="XMLID_1932_" d="M218.819,36.86h0a43.981,43.981,0,0,1-31.1,12.882H171.438v-8.05a31.59,31.59,0,0,1,31.59-31.59h0a31.59,31.59,0,0,1,31.59,31.59v8.05h-13.55a14.451,14.451,0,0,1-10.218-4.233h0" transform="translate(-107.376 -6.263)" fill="#1a1a1a"/>
        <path id="XMLID_2397_" d="M171.437,104.812v16.952a31.59,31.59,0,0,0,31.59,31.59h0a31.59,31.59,0,0,0,31.59-31.59V104.812h-8.543a19.73,19.73,0,0,1-14.889-6.783h0a34.176,34.176,0,0,1-20.436,6.783Z" transform="translate(-107.375 -61.334)" fill="#533b26"/>
        <path id="XMLID_2396_" d="M346.509,136.134h-6V116.183h6a8.968,8.968,0,0,1,8.968,8.968v2.015A8.969,8.969,0,0,1,346.509,136.134Z" transform="translate(-213.273 -72.705)" fill="#533b26"/>
        <path id="XMLID_2395_" d="M140.361,136.134h6V116.183h-6a8.968,8.968,0,0,0-8.968,8.968v2.015A8.968,8.968,0,0,0,140.361,136.134Z" transform="translate(-82.295 -72.705)" fill="#533b26"/>
        <path id="XMLID_1006_" d="M217.266,405.826a57.439,57.439,0,1,0-114.878,0" transform="translate(-64.128 -218.14)" fill="#898998"/>
        <path id="XMLID_935_" d="M360.986,419.091,346.47,394.562l-4.409,2.835a6.5,6.5,0,0,1-8.468-1.262l-8.009-9.439a6.5,6.5,0,0,1-.655-7.483l5.639-9.647H347.2l42.141,42.141a4.326,4.326,0,0,1-3.058,7.384h-25.3Z" transform="translate(-202.955 -231.405)" fill="#533b26"/>
        <path id="XMLID_1314_" d="M395.972,432.444l10.066,17.011h25.3a4.326,4.326,0,0,0,3.058-7.384l-24.026-24.026Z" transform="translate(-248.008 -261.769)" fill="#87a2fa"/>
        <path id="XMLID_1313_" d="M39.622,419.091l14.516-24.529,4.409,2.835a6.5,6.5,0,0,0,8.468-1.262l8.009-9.439a6.5,6.5,0,0,0,.655-7.483l-5.639-9.647H53.4L11.263,411.707a4.326,4.326,0,0,0,3.059,7.384h25.3Z" transform="translate(-6.255 -231.405)" fill="#533b26"/>
        <path id="XMLID_1303_" d="M49.689,432.444,39.622,449.455h-25.3a4.326,4.326,0,0,1-3.059-7.384l24.026-24.026Z" transform="translate(-6.255 -261.769)" fill="#87a2fa"/>
        <path id="XMLID_910_" d="M228.053,432.569a41.484,41.484,0,0,0-82.968,0Z" transform="translate(-90.87 -244.883)" fill="#edf2fa"/>
        <path id="XMLID_2470_" d="M248.1,482.267a11.833,11.833,0,1,0-23.667,0Z" transform="translate(-140.569 -294.581)" fill="#898998"/>
        <g id="XMLID_727_" transform="translate(0 0.102)">
          <path id="XMLID_728_" d="M327.116,284.123a3.749,3.749,0,1,0,2.642-1.091A3.762,3.762,0,0,0,327.116,284.123Z" transform="translate(-204.198 -177.309)"/>
          <path id="XMLID_1327_" d="M189.032,177.66l-.236-.236-9.869-41.472a39.073,39.073,0,0,0-38.14-30.129h-.279a3.737,3.737,0,0,0,0,7.473h.279a31.625,31.625,0,0,1,30.87,24.386l7.058,29.66L146.89,135.518a3.737,3.737,0,0,0-2.642-1.094H127.612a3.728,3.728,0,0,0-1.359.26,61.209,61.209,0,0,0-61.114,0,3.731,3.731,0,0,0-1.354-.258H47.149a3.737,3.737,0,0,0-2.642,1.094L12.659,167.365l7.013-29.643A31.618,31.618,0,0,1,50.553,113.3H79.22a24.889,24.889,0,0,0,34.037-1.094,3.738,3.738,0,0,0,1.094-2.642V90.387a35.418,35.418,0,0,0,15.979-23.221h2.906a12.719,12.719,0,0,0,12.7-12.7V52.446a12.719,12.719,0,0,0-12.7-12.7h-2.258V35.428a35.326,35.326,0,1,0-70.653,0v4.313H58.067a12.719,12.719,0,0,0-12.7,12.7v2.015a12.719,12.719,0,0,0,12.7,12.7h2.906A35.418,35.418,0,0,0,76.952,90.387v15.436h-26.4A39.205,39.205,0,0,0,12.4,136L2.6,177.426l-.234.234a8.062,8.062,0,0,0,5.7,13.763h25.3a3.737,3.737,0,0,0,3.216-1.834L49.123,168.4l1.148.738a10.142,10.142,0,0,0,3.578,1.426,44.97,44.97,0,0,0-3.371,17.125,3.737,3.737,0,0,0,7.473,0,37.571,37.571,0,0,1,8.557-23.906l15.863,15.863a15.475,15.475,0,0,0-2.243,8.043,3.737,3.737,0,0,0,7.473,0,8.1,8.1,0,0,1,16.194,0,3.737,3.737,0,0,0,7.473,0,15.475,15.475,0,0,0-2.243-8.043l15.863-15.863a37.571,37.571,0,0,1,8.557,23.906,3.737,3.737,0,0,0,7.473,0,44.97,44.97,0,0,0-3.371-17.125,10.142,10.142,0,0,0,3.578-1.426l1.148-.738,12.541,21.192a3.736,3.736,0,0,0,3.216,1.834h25.3a8.063,8.063,0,0,0,5.7-13.763ZM138.467,52.446v2.015a5.237,5.237,0,0,1-5.231,5.231h-2.258V47.215h2.258A5.237,5.237,0,0,1,138.467,52.446ZM67.8,35.428a27.853,27.853,0,1,1,55.706,0v4.313h-9.813a10.646,10.646,0,0,1-5.475-1.5,48.368,48.368,0,0,0,5.869-5,3.737,3.737,0,1,0-5.284-5.285A39.98,39.98,0,0,1,80.343,39.741H67.8V35.428ZM52.835,54.461V52.446a5.237,5.237,0,0,1,5.231-5.231h2.258V59.693H58.066A5.237,5.237,0,0,1,52.835,54.461ZM67.8,60.437V47.215H80.343a47.528,47.528,0,0,0,20.994-4.839,18.057,18.057,0,0,0,12.354,4.839H123.5V60.43a27.853,27.853,0,0,1-55.706.007ZM95.651,95.756a35.186,35.186,0,0,0,11.227-1.83v14a17.453,17.453,0,0,1-22.454,0v-14A35.189,35.189,0,0,0,95.651,95.756Zm26.127,44.98-3.031,5.185a10.2,10.2,0,0,0-.986,2.3,45.133,45.133,0,0,0-44.126,0,10.2,10.2,0,0,0-.986-2.3l-3.03-5.184a53.729,53.729,0,0,1,52.159,0ZM31.236,183.949H8.066a.589.589,0,0,1-.416-1.005L28.889,161.7l9.744,9.744ZM49.9,160.014a3.736,3.736,0,0,0-5.236,1.24l-2.1,3.555-8.389-8.389L48.7,141.9H61.642l4.557,7.8a2.764,2.764,0,0,1-.278,3.179l-8.009,9.439a2.771,2.771,0,0,1-3.6.537Zm37.753,14.345L71.793,158.5a37.672,37.672,0,0,1,47.812,0l-15.863,15.863a15.542,15.542,0,0,0-16.086,0Zm53.838-14.345-4.409,2.835a2.769,2.769,0,0,1-3.6-.536l-8.009-9.439a2.765,2.765,0,0,1-.278-3.18l4.557-7.8H142.7l14.523,14.523-8.389,8.389-2.1-3.555a3.737,3.737,0,0,0-5.237-1.24Zm42.381,23.572a.534.534,0,0,1-.544.364h-23.17l-7.4-12.5,9.744-9.744,21.239,21.239A.533.533,0,0,1,183.875,183.586Z" transform="translate(0 -0.102)"/>
        </g>
      </g>
    </g>
  </g>
</svg>
