<svg xmlns="http://www.w3.org/2000/svg" width="72" height="72" viewBox="0 0 72 72">
  <g id="Group_149" data-name="Group 149" transform="translate(-262.434 -4344.434)">
    <rect id="Rectangle_718" data-name="Rectangle 718" width="72" height="72" rx="21" transform="translate(262.434 4344.434)" fill="#eff4ff"/>
    <g id="Group_81" data-name="Group 81" transform="translate(5.934 -210.066)">
      <rect id="Rectangle_720" data-name="Rectangle 720" width="61" height="61" transform="translate(262.5 4560.5)" fill="none" opacity="0"/>
    </g>
    <g id="clock-circular-outline_1_" data-name="clock-circular-outline (1)" transform="translate(276.052 4358.052)">
      <g id="Group_77" data-name="Group 77">
        <path id="Path_226" data-name="Path 226" d="M22.382,0A22.382,22.382,0,1,0,44.764,22.382,22.407,22.407,0,0,0,22.382,0Zm0,39.871a17.49,17.49,0,1,1,17.49-17.49A17.509,17.509,0,0,1,22.382,39.871Z" fill="#87a2fa"/>
        <path id="Path_227" data-name="Path 227" d="M260.581,150.532v-9.381a1.9,1.9,0,1,0-3.792,0v9.986c0,.03.007.058.009.088a1.885,1.885,0,0,0,.546,1.433l7.062,7.061a1.9,1.9,0,1,0,2.681-2.681Z" transform="translate(-236.262 -128.123)" fill="#87a2fa"/>
      </g>
    </g>
  </g>
</svg>
