<svg xmlns="http://www.w3.org/2000/svg" width="133.358" height="44.907" viewBox="0 0 133.358 44.907"><defs><style>.a{fill:none;stroke:#fff;stroke-linecap:round;stroke-linejoin:round;}</style></defs><g transform="translate(-900.892 443.977) rotate(-90)"><path class="a" d="M434.714,901.571l-12.106,22,12.106,22-12.106,22,12.106,22-12.106,22,12.106,22" transform="translate(8.584 0)"/><path class="a" d="M427.034,901.571l-12.106,22,12.106,22-12.106,22,12.106,22-12.106,22,12.106,22" transform="translate(5.723 0)"/><path class="a" d="M419.355,901.571l-12.106,22,12.106,22-12.106,22,12.106,22-12.106,22,12.106,22" transform="translate(2.861 0)"/><path class="a" d="M411.676,901.571l-12.106,22,12.106,22-12.106,22,12.106,22-12.106,22,12.106,22" transform="translate(0 0)"/></g></svg>