<svg xmlns="http://www.w3.org/2000/svg" width="224.85" height="224.85" viewBox="0 0 224.85 224.85">
  <g id="Group_162" data-name="Group 162" transform="translate(-265 -3074.075)">
    <circle id="Ellipse_66" data-name="Ellipse 66" cx="112.425" cy="112.425" r="112.425" transform="translate(265 3074.075)" fill="#f0b0ab"/>
    <g id="car_2_" data-name="car (2)" transform="translate(305.775 3080.803)">
      <g id="Group_111" data-name="Group 111" transform="translate(0 78.33)">
        <path id="Path_291" data-name="Path 291" d="M328.372,265.239l10.533-.063a3.636,3.636,0,0,1,3.657,3.614l.125,20.915a3.636,3.636,0,0,1-3.614,3.657l-10.533.063a3.636,3.636,0,0,1-3.657-3.614l-.125-20.915A3.636,3.636,0,0,1,328.372,265.239Z" transform="translate(-208.036 -214.151)" fill="#2f4859"/>
        <path id="Path_292" data-name="Path 292" d="M30.139,267.014l10.533-.063a3.636,3.636,0,0,1,3.657,3.614l.124,20.916a3.636,3.636,0,0,1-3.614,3.657l-10.533.063a3.636,3.636,0,0,1-3.657-3.614l-.125-20.915A3.636,3.636,0,0,1,30.139,267.014Z" transform="translate(-16.992 -215.288)" fill="#2f4859"/>
        <path id="Path_293" data-name="Path 293" d="M356.124,123.355a1.7,1.7,0,0,0-1.54,1.71,3.437,3.437,0,0,1-2.574,3.762l-2.62.016,1.346,3.927s16.871-.1,16.367-5.643C366.711,122.827,359.388,123.042,356.124,123.355Z" transform="translate(-223.815 -123.208)" fill="#2f4859"/>
        <path id="Path_294" data-name="Path 294" d="M10.989,123.355a1.7,1.7,0,0,1,1.54,1.71,3.437,3.437,0,0,0,2.574,3.762l2.62.016-1.346,3.927s-16.871-.1-16.367-5.643c.391-4.3,7.714-4.086,10.978-3.773Z" transform="translate(0 -123.208)" fill="#2f4859"/>
      </g>
      <path id="Path_295" data-name="Path 295" d="M145.922,111.385a29.025,29.025,0,0,0-3.5-11.751l-7.111-13.042s-12.628-28.463-17.888-30.728c-5.086-2.19-37.552-2.683-39.7-2.713H77.6c-2.151.057-34.608.937-39.668,3.188C32.7,58.666,20.409,87.272,20.409,87.272L13.46,100.4a29.055,29.055,0,0,0-3.355,11.79,84.977,84.977,0,0,0,2.907,27.037,9.476,9.476,0,0,0,9.229,6.971l55.917-.323h.119l55.917-.332a9.477,9.477,0,0,0,9.143-7.081,84.9,84.9,0,0,0,2.586-27.076Z" transform="translate(-6.395 0)" fill="#1794d7"/>
      <path id="Path_296" data-name="Path 296" d="M120.556,261.655l54.49-.325a1.765,1.765,0,0,1,1.776,1.755l.055,9.278a1.765,1.765,0,0,1-1.755,1.776l-54.49.325a1.765,1.765,0,0,1-1.776-1.755l-.055-9.278a1.765,1.765,0,0,1,1.755-1.776Z" transform="translate(-76.102 -133.357)" fill="#3a556a"/>
      <path id="Path_297" data-name="Path 297" d="M148.5,67.591a3.556,3.556,0,0,0-3.159-2.071l-37.259-.764h-.117L70.715,65.964a3.556,3.556,0,0,0-3.133,2.108L56.894,92.113l51.227-.306h.117l51.234-.306Z" transform="translate(-36.446 -7.433)" fill="#2f4859"/>
      <path id="Path_298" data-name="Path 298" d="M333.988,256.968a6.5,6.5,0,1,0,6.541,6.465v0A6.5,6.5,0,0,0,333.988,256.968Z" transform="translate(-209.807 -130.563)" fill="#ebf0f3"/>
      <path id="Path_299" data-name="Path 299" d="M43.45,258.7a6.5,6.5,0,1,0,6.542,6.464A6.5,6.5,0,0,0,43.45,258.7Z" transform="translate(-23.693 -131.675)" fill="#ebf0f3"/>
      <path id="Path_300" data-name="Path 300" d="M131.61,216.343h47.428v5.92H131.61Z" transform="translate(-84.308 -104.539)" fill="#3a556a"/>
      <path id="Path_301" data-name="Path 301" d="M315.612,186.45a2.524,2.524,0,0,0-2.792-2.224,2.5,2.5,0,0,0-.321.057l-21.689,5.3a2.526,2.526,0,0,0-1.559,1.147l-4.3,7.111a2.521,2.521,0,0,0,2.158,3.824H308.3a2.539,2.539,0,0,0,1.4-.407C314.7,197.951,316.265,192.794,315.612,186.45Z" transform="translate(-182.306 -83.955)" fill="#e1e6e9"/>
      <path id="Path_302" data-name="Path 302" d="M334.178,196.036a4.752,4.752,0,1,0,4.943,4.554,4.752,4.752,0,0,0-4.943-4.554Z" transform="translate(-211.151 -91.528)" fill="#bdbec1"/>
      <path id="Path_303" data-name="Path 303" d="M308.107,208.656a3.614,3.614,0,1,0,3.757,3.466v0A3.614,3.614,0,0,0,308.107,208.656Z" transform="translate(-195.147 -99.613)" fill="#bdbec1"/>
      <path id="Path_304" data-name="Path 304" d="M27.55,186.45a2.524,2.524,0,0,1,2.792-2.224,2.5,2.5,0,0,1,.321.057l21.689,5.3a2.526,2.526,0,0,1,1.559,1.147l4.3,7.111a2.521,2.521,0,0,1-2.158,3.824H34.859a2.539,2.539,0,0,1-1.4-.407c-5-3.311-6.564-8.468-5.911-14.811Z" transform="translate(-17.558 -83.955)" fill="#e1e6e9"/>
      <path id="Path_305" data-name="Path 305" d="M47.583,196.036a4.752,4.752,0,1,1-4.943,4.554,4.752,4.752,0,0,1,4.943-4.554Z" transform="translate(-27.313 -91.528)" fill="#bdbec1"/>
      <path id="Path_306" data-name="Path 306" d="M77.711,208.656a3.614,3.614,0,1,1-3.757,3.466v0A3.614,3.614,0,0,1,77.711,208.656Z" transform="translate(-47.373 -99.613)" fill="#bdbec1"/>
    </g>
  </g>
</svg>
