<svg xmlns="http://www.w3.org/2000/svg" width="32" height="32" viewBox="0 0 32 32"><defs><style>.a{fill:none;opacity:0;}.b{fill:#1a1a1a;}</style></defs><g transform="translate(-262 -4344)"><rect class="a" width="32" height="32" transform="translate(262 4344)"/><g transform="translate(266.5 4327.403)"><g transform="translate(0 22.379)"><path class="b" d="M6.683,118.728a14.324,14.324,0,0,0,1.862-.119v-6.48a14.336,14.336,0,0,0-1.862-.119C2.993,112.009,0,113.366,0,115.04v.657C0,117.371,2.993,118.728,6.683,118.728Z" transform="translate(-0.001 -106.876)"/><path class="b" d="M6.683,217.483a14.347,14.347,0,0,0,1.862-.119v-1.9a14.334,14.334,0,0,1-1.862.12c-3.221,0-5.91-1.034-6.542-2.41a1.478,1.478,0,0,0-.141.621v.657C0,216.126,2.993,217.483,6.683,217.483Z" transform="translate(-0.001 -202.247)"/><path class="b" d="M8.545,274.7v-.148a14.336,14.336,0,0,1-1.862.12c-3.221,0-5.91-1.034-6.542-2.41a1.478,1.478,0,0,0-.141.621v.657c0,1.674,2.992,3.031,6.682,3.031a14.2,14.2,0,0,0,2.112-.155,2.391,2.391,0,0,1-.249-1.059Z" transform="translate(0 -257.948)"/><path class="b" d="M174.921,22.379c-3.69,0-6.682,1.357-6.682,3.031v.657c0,1.674,2.992,3.031,6.682,3.031s6.682-1.357,6.682-3.031V25.41C181.6,23.736,178.612,22.379,174.921,22.379Z" transform="translate(-158.604 -22.379)"/><path class="b" d="M174.921,125.954c-3.221,0-5.91-1.034-6.542-2.41a1.478,1.478,0,0,0-.141.621v.657c0,1.674,2.992,3.031,6.682,3.031s6.682-1.357,6.682-3.031v-.657a1.478,1.478,0,0,0-.141-.621C180.831,124.92,178.143,125.954,174.921,125.954Z" transform="translate(-158.604 -117.75)"/><path class="b" d="M174.921,185.038c-3.221,0-5.91-1.034-6.542-2.41a1.478,1.478,0,0,0-.141.621v.657c0,1.674,2.992,3.031,6.682,3.031s6.682-1.357,6.682-3.031v-.657a1.478,1.478,0,0,0-.141-.621C180.831,184,178.143,185.038,174.921,185.038Z" transform="translate(-158.604 -173.451)"/><path class="b" d="M174.921,247.311c-3.221,0-5.91-1.034-6.542-2.41a1.478,1.478,0,0,0-.141.621v.657c0,1.674,2.992,3.031,6.682,3.031s6.682-1.357,6.682-3.031v-.657a1.477,1.477,0,0,0-.141-.621C180.831,246.277,178.143,247.311,174.921,247.311Z" transform="translate(-158.604 -232.157)"/><path class="b" d="M174.921,306.394c-3.221,0-5.91-1.034-6.542-2.41a1.478,1.478,0,0,0-.141.621v.657c0,1.674,2.992,3.031,6.682,3.031s6.682-1.357,6.682-3.031V304.6a1.477,1.477,0,0,0-.141-.621C180.831,305.36,178.143,306.394,174.921,306.394Z" transform="translate(-158.604 -287.857)"/></g></g></g></svg>