<svg xmlns="http://www.w3.org/2000/svg" width="32" height="32" viewBox="0 0 32 32"><defs><style>.a{fill:none;opacity:0;}</style></defs><g transform="translate(-262 -4560)"><rect class="a" width="32" height="32" transform="translate(262 4560)"/><g transform="translate(265.6 4563.594)"><g transform="translate(0.001 11.521)"><g transform="translate(0)"><path d="M.339,238.667a.517.517,0,0,0-.307.661l.324.893,2.471-2.471Z" transform="translate(-0.001 -237.75)"/></g></g><g transform="translate(2.677 20.374)"><path d="M55.257,420.513l1.488,4.092a.512.512,0,0,0,.268.291.52.52,0,0,0,.218.049.506.506,0,0,0,.179-.032l1.642-.605Z" transform="translate(-55.257 -420.513)"/></g><g transform="translate(13.794 12.198)"><path d="M295.758,256.406l-1.7-4.682-4.087,4.087,2.025-.746a.517.517,0,0,1,.358.969l-2.573.949a.516.516,0,0,1-.663-.306s0-.006,0-.009L284.783,261l10.668-3.931A.515.515,0,0,0,295.758,256.406Z" transform="translate(-284.783 -251.724)"/></g><g transform="translate(0.001 0.006)"><g transform="translate(0 0)"><path d="M24.667,8.424,16.4.157a.517.517,0,0,0-.731,0L.17,15.657a.517.517,0,0,0,0,.731l8.266,8.266a.512.512,0,0,0,.365.152.519.519,0,0,0,.366-.151l15.5-15.5A.518.518,0,0,0,24.667,8.424Zm-18.6,5.9L4,16.388a.517.517,0,1,1-.732-.731l2.067-2.067a.517.517,0,0,1,.732.731Zm8.923.656a1.95,1.95,0,0,1-1.416.541A4.269,4.269,0,0,1,10.7,14.147a4.734,4.734,0,0,1-1.291-2.2,2.159,2.159,0,0,1,.46-2.09,2.152,2.152,0,0,1,2.09-.46,4.725,4.725,0,0,1,2.2,1.291C15.594,12.123,15.96,14.008,14.99,14.978Zm6.577-5.823L19.5,11.222a.517.517,0,0,1-.732-.731l2.067-2.067a.517.517,0,0,1,.732.731Z" transform="translate(-0.019 -0.006)"/></g></g></g></g></svg>