<svg xmlns="http://www.w3.org/2000/svg" width="137.892" height="130.476" viewBox="0 0 137.892 130.476"><defs><style>.a{fill:#98aef6;}</style></defs><g transform="translate(-208.311 -567.939)"><circle class="a" cx="2.946" cy="2.946" r="2.946" transform="translate(208.311 692.522)"/><circle class="a" cx="2.946" cy="2.946" r="2.946" transform="translate(227.168 692.522)"/><circle class="a" cx="2.946" cy="2.946" r="2.946" transform="translate(246.025 692.522)"/><circle class="a" cx="2.946" cy="2.946" r="2.946" transform="translate(264.882 692.522)"/><circle class="a" cx="2.946" cy="2.946" r="2.946" transform="translate(283.739 692.522)"/><path class="a" d="M308.489,695.468a2.947,2.947,0,1,1-2.946-2.946A2.946,2.946,0,0,1,308.489,695.468Z"/><circle class="a" cx="2.946" cy="2.946" r="2.946" transform="translate(321.453 692.522)"/><circle class="a" cx="2.946" cy="2.946" r="2.946" transform="translate(340.31 692.522)"/><circle class="a" cx="2.946" cy="2.946" r="2.946" transform="translate(208.311 674.725)"/><circle class="a" cx="2.946" cy="2.946" r="2.946" transform="translate(227.168 674.725)"/><circle class="a" cx="2.946" cy="2.946" r="2.946" transform="translate(246.025 674.725)"/><circle class="a" cx="2.946" cy="2.946" r="2.946" transform="translate(264.882 674.725)"/><circle class="a" cx="2.946" cy="2.946" r="2.946" transform="translate(283.739 674.725)"/><path class="a" d="M308.489,677.671a2.947,2.947,0,1,1-2.946-2.946A2.946,2.946,0,0,1,308.489,677.671Z"/><circle class="a" cx="2.946" cy="2.946" r="2.946" transform="translate(321.453 674.725)"/><circle class="a" cx="2.946" cy="2.946" r="2.946" transform="translate(340.31 674.725)"/><circle class="a" cx="2.946" cy="2.946" r="2.946" transform="translate(208.311 656.927)"/><circle class="a" cx="2.946" cy="2.946" r="2.946" transform="translate(227.168 656.927)"/><circle class="a" cx="2.946" cy="2.946" r="2.946" transform="translate(246.025 656.927)"/><circle class="a" cx="2.946" cy="2.946" r="2.946" transform="translate(264.882 656.927)"/><circle class="a" cx="2.946" cy="2.946" r="2.946" transform="translate(283.739 656.927)"/><path class="a" d="M308.489,659.873a2.947,2.947,0,1,1-2.946-2.946A2.946,2.946,0,0,1,308.489,659.873Z"/><circle class="a" cx="2.946" cy="2.946" r="2.946" transform="translate(321.453 656.927)"/><circle class="a" cx="2.946" cy="2.946" r="2.946" transform="translate(340.31 656.927)"/><path class="a" d="M214.2,642.076a2.946,2.946,0,1,1-2.946-2.947A2.946,2.946,0,0,1,214.2,642.076Z"/><path class="a" d="M233.061,642.076a2.947,2.947,0,1,1-2.946-2.947A2.946,2.946,0,0,1,233.061,642.076Z"/><path class="a" d="M251.918,642.076a2.947,2.947,0,1,1-2.946-2.947A2.946,2.946,0,0,1,251.918,642.076Z"/><path class="a" d="M270.775,642.076a2.947,2.947,0,1,1-2.946-2.947A2.946,2.946,0,0,1,270.775,642.076Z"/><path class="a" d="M289.632,642.076a2.946,2.946,0,1,1-2.946-2.947A2.946,2.946,0,0,1,289.632,642.076Z"/><path class="a" d="M308.489,642.076a2.947,2.947,0,1,1-2.946-2.947A2.946,2.946,0,0,1,308.489,642.076Z"/><path class="a" d="M327.346,642.076a2.947,2.947,0,1,1-2.946-2.947A2.946,2.946,0,0,1,327.346,642.076Z"/><path class="a" d="M346.2,642.076a2.947,2.947,0,1,1-2.946-2.947A2.946,2.946,0,0,1,346.2,642.076Z"/><path class="a" d="M214.2,624.278a2.946,2.946,0,1,1-2.946-2.946A2.946,2.946,0,0,1,214.2,624.278Z"/><path class="a" d="M233.061,624.278a2.947,2.947,0,1,1-2.946-2.946A2.946,2.946,0,0,1,233.061,624.278Z"/><path class="a" d="M251.918,624.278a2.947,2.947,0,1,1-2.946-2.946A2.946,2.946,0,0,1,251.918,624.278Z"/><path class="a" d="M270.775,624.278a2.947,2.947,0,1,1-2.946-2.946A2.946,2.946,0,0,1,270.775,624.278Z"/><path class="a" d="M289.632,624.278a2.946,2.946,0,1,1-2.946-2.946A2.946,2.946,0,0,1,289.632,624.278Z"/><path class="a" d="M308.489,624.278a2.947,2.947,0,1,1-2.946-2.946A2.946,2.946,0,0,1,308.489,624.278Z"/><path class="a" d="M327.346,624.278a2.947,2.947,0,1,1-2.946-2.946A2.946,2.946,0,0,1,327.346,624.278Z"/><path class="a" d="M346.2,624.278a2.947,2.947,0,1,1-2.946-2.946A2.946,2.946,0,0,1,346.2,624.278Z"/><path class="a" d="M214.2,606.481a2.946,2.946,0,1,1-2.946-2.947A2.946,2.946,0,0,1,214.2,606.481Z"/><path class="a" d="M233.061,606.481a2.947,2.947,0,1,1-2.946-2.947A2.946,2.946,0,0,1,233.061,606.481Z"/><path class="a" d="M251.918,606.481a2.947,2.947,0,1,1-2.946-2.947A2.946,2.946,0,0,1,251.918,606.481Z"/><path class="a" d="M270.775,606.481a2.947,2.947,0,1,1-2.946-2.947A2.946,2.946,0,0,1,270.775,606.481Z"/><path class="a" d="M289.632,606.481a2.946,2.946,0,1,1-2.946-2.947A2.946,2.946,0,0,1,289.632,606.481Z"/><path class="a" d="M308.489,606.481a2.947,2.947,0,1,1-2.946-2.947A2.946,2.946,0,0,1,308.489,606.481Z"/><path class="a" d="M327.346,606.481a2.947,2.947,0,1,1-2.946-2.947A2.946,2.946,0,0,1,327.346,606.481Z"/><path class="a" d="M346.2,606.481a2.947,2.947,0,1,1-2.946-2.947A2.946,2.946,0,0,1,346.2,606.481Z"/><circle class="a" cx="2.946" cy="2.946" r="2.946" transform="translate(208.311 585.737)"/><circle class="a" cx="2.946" cy="2.946" r="2.946" transform="translate(227.168 585.737)"/><circle class="a" cx="2.946" cy="2.946" r="2.946" transform="translate(246.025 585.737)"/><circle class="a" cx="2.946" cy="2.946" r="2.946" transform="translate(264.882 585.737)"/><circle class="a" cx="2.946" cy="2.946" r="2.946" transform="translate(283.739 585.737)"/><path class="a" d="M308.489,588.683a2.947,2.947,0,1,1-2.946-2.946A2.946,2.946,0,0,1,308.489,588.683Z"/><circle class="a" cx="2.946" cy="2.946" r="2.946" transform="translate(321.453 585.737)"/><circle class="a" cx="2.946" cy="2.946" r="2.946" transform="translate(340.31 585.737)"/><circle class="a" cx="2.946" cy="2.946" r="2.946" transform="translate(208.311 567.939)"/><circle class="a" cx="2.946" cy="2.946" r="2.946" transform="translate(227.168 567.939)"/><circle class="a" cx="2.946" cy="2.946" r="2.946" transform="translate(246.025 567.939)"/><circle class="a" cx="2.946" cy="2.946" r="2.946" transform="translate(264.882 567.939)"/><circle class="a" cx="2.946" cy="2.946" r="2.946" transform="translate(283.739 567.939)"/><path class="a" d="M308.489,570.886a2.947,2.947,0,1,1-2.946-2.947A2.946,2.946,0,0,1,308.489,570.886Z"/><circle class="a" cx="2.946" cy="2.946" r="2.946" transform="translate(321.453 567.939)"/><circle class="a" cx="2.946" cy="2.946" r="2.946" transform="translate(340.31 567.939)"/></g></svg>