<svg xmlns="http://www.w3.org/2000/svg" width="72" height="72" viewBox="0 0 72 72">
  <g id="Group_64" data-name="Group 64" transform="translate(-262.434 -4344.434)">
    <rect id="Rectangle_718" data-name="Rectangle 718" width="72" height="72" rx="21" transform="translate(262.434 4344.434)" fill="#ffe2e0"/>
    <g id="calendar_5_" data-name="calendar (5)" transform="translate(274.434 4356.434)">
      <g id="Group_130" data-name="Group 130">
        <g id="Group_129" data-name="Group 129">
          <circle id="Ellipse_70" data-name="Ellipse 70" cx="2" cy="2" r="2" transform="translate(34 18)" fill="#ee6f57"/>
          <path id="Path_341" data-name="Path 341" d="M40.5,3.75H38.063V1.875a1.875,1.875,0,0,0-3.75,0V3.75H25.781V1.875a1.875,1.875,0,1,0-3.75,0V3.75H13.594V1.875a1.875,1.875,0,1,0-3.75,0V3.75H7.5A7.509,7.509,0,0,0,0,11.25V40.5A7.509,7.509,0,0,0,7.5,48H21.844a1.875,1.875,0,0,0,0-3.75H7.5A3.754,3.754,0,0,1,3.75,40.5V11.25A3.754,3.754,0,0,1,7.5,7.5H9.844V9.375a1.875,1.875,0,1,0,3.75,0V7.5h8.438V9.375a1.875,1.875,0,1,0,3.75,0V7.5h8.531V9.375a1.875,1.875,0,0,0,3.75,0V7.5H40.5a3.754,3.754,0,0,1,3.75,3.75V21.938a1.875,1.875,0,0,0,3.75,0V11.25A7.509,7.509,0,0,0,40.5,3.75Z" fill="#ee6f57"/>
          <path id="Path_342" data-name="Path 342" d="M281.344,270a11.344,11.344,0,1,0,11.344,11.344A11.357,11.357,0,0,0,281.344,270Zm0,18.938a7.594,7.594,0,1,1,7.594-7.594A7.6,7.6,0,0,1,281.344,288.937Z" transform="translate(-244.687 -244.687)" fill="#ee6f57"/>
          <path id="Path_343" data-name="Path 343" d="M375.594,333.844h-.844v-1.969a1.875,1.875,0,0,0-3.75,0v3.844a1.875,1.875,0,0,0,1.875,1.875h2.719a1.875,1.875,0,0,0,0-3.75Z" transform="translate(-336.219 -299.063)" fill="#ee6f57"/>
          <circle id="Ellipse_71" data-name="Ellipse 71" cx="2" cy="2" r="2" transform="translate(27 18)" fill="#ee6f57"/>
          <circle id="Ellipse_72" data-name="Ellipse 72" cx="2" cy="2" r="2" transform="translate(18 26)" fill="#ee6f57"/>
          <circle id="Ellipse_73" data-name="Ellipse 73" cx="2" cy="2" r="2" transform="translate(10 18)" fill="#ee6f57"/>
          <circle id="Ellipse_74" data-name="Ellipse 74" cx="2" cy="2" r="2" transform="translate(10 26)" fill="#ee6f57"/>
          <circle id="Ellipse_75" data-name="Ellipse 75" cx="2" cy="2" r="2" transform="translate(10 34)" fill="#ee6f57"/>
          <circle id="Ellipse_76" data-name="Ellipse 76" cx="2" cy="2" r="2" transform="translate(18 34)" fill="#ee6f57"/>
          <circle id="Ellipse_77" data-name="Ellipse 77" cx="2" cy="2" r="2" transform="translate(18 18)" fill="#ee6f57"/>
        </g>
      </g>
    </g>
  </g>
</svg>
