<svg xmlns="http://www.w3.org/2000/svg" width="133.936" height="141.548" viewBox="0 0 133.936 141.548"><defs><style>.a{fill:#1794d7;}</style></defs><ellipse class="a" cx="3.024" cy="3.024" rx="3.024" ry="3.024" transform="translate(127.887 0)"/><path class="a" d="M-252.631,778.354a3.024,3.024,0,0,0,3.023-3.025,3.022,3.022,0,0,0-3.023-3.024,3.024,3.024,0,0,0-3.026,3.024A3.026,3.026,0,0,0-252.631,778.354Z" transform="translate(383.543 -752.947)"/><ellipse class="a" cx="3.024" cy="3.024" rx="3.024" ry="3.024" transform="translate(127.887 38.714)"/><ellipse class="a" cx="3.024" cy="3.024" rx="3.024" ry="3.024" transform="translate(127.887 58.071)"/><ellipse class="a" cx="3.024" cy="3.024" rx="3.024" ry="3.024" transform="translate(127.887 77.428)"/><ellipse class="a" cx="3.024" cy="3.024" rx="3.024" ry="3.024" transform="translate(127.887 96.785)"/><path class="a" d="M-252.631,823.076a3.024,3.024,0,0,0,3.023-3.026,3.024,3.024,0,0,0-3.023-3.025,3.026,3.026,0,0,0-3.026,3.025A3.026,3.026,0,0,0-252.631,823.076Z" transform="translate(383.543 -700.884)"/><ellipse class="a" cx="3.024" cy="3.024" rx="3.024" ry="3.024" transform="translate(127.887 135.499)"/><path class="a" d="M-244.193,769.41a3.026,3.026,0,0,0,3.026-3.026,3.024,3.024,0,0,0-3.026-3.023,3.022,3.022,0,0,0-3.023,3.023A3.024,3.024,0,0,0-244.193,769.41Z" transform="translate(356.834 -763.36)"/><path class="a" d="M-244.193,778.354a3.026,3.026,0,0,0,3.026-3.025,3.024,3.024,0,0,0-3.026-3.024,3.022,3.022,0,0,0-3.023,3.024A3.024,3.024,0,0,0-244.193,778.354Z" transform="translate(356.834 -752.947)"/><path class="a" d="M-244.193,787.3a3.026,3.026,0,0,0,3.026-3.026,3.025,3.025,0,0,0-3.026-3.023,3.024,3.024,0,0,0-3.023,3.023A3.024,3.024,0,0,0-244.193,787.3Z" transform="translate(356.834 -742.535)"/><path class="a" d="M-244.193,796.242a3.025,3.025,0,0,0,3.026-3.023,3.026,3.026,0,0,0-3.026-3.026,3.024,3.024,0,0,0-3.023,3.026A3.023,3.023,0,0,0-244.193,796.242Z" transform="translate(356.834 -732.122)"/><path class="a" d="M-244.193,805.186a3.024,3.024,0,0,0,3.026-3.023,3.026,3.026,0,0,0-3.026-3.025,3.024,3.024,0,0,0-3.023,3.025A3.022,3.022,0,0,0-244.193,805.186Z" transform="translate(356.834 -721.709)"/><path class="a" d="M-244.193,814.13a3.024,3.024,0,0,0,3.026-3.023,3.026,3.026,0,0,0-3.026-3.026,3.024,3.024,0,0,0-3.023,3.026A3.022,3.022,0,0,0-244.193,814.13Z" transform="translate(356.834 -711.297)"/><path class="a" d="M-244.193,823.076a3.026,3.026,0,0,0,3.026-3.026,3.026,3.026,0,0,0-3.026-3.025,3.024,3.024,0,0,0-3.023,3.025A3.024,3.024,0,0,0-244.193,823.076Z" transform="translate(356.834 -700.884)"/><path class="a" d="M-235.748,769.41a3.025,3.025,0,0,0,3.023-3.026,3.024,3.024,0,0,0-3.023-3.023,3.024,3.024,0,0,0-3.026,3.023A3.026,3.026,0,0,0-235.748,769.41Z" transform="translate(330.121 -763.36)"/><path class="a" d="M-235.748,778.354a3.025,3.025,0,0,0,3.023-3.025,3.024,3.024,0,0,0-3.023-3.024,3.024,3.024,0,0,0-3.026,3.024A3.026,3.026,0,0,0-235.748,778.354Z" transform="translate(330.121 -752.947)"/><path class="a" d="M-235.748,787.3a3.025,3.025,0,0,0,3.023-3.026,3.025,3.025,0,0,0-3.023-3.023,3.025,3.025,0,0,0-3.026,3.023A3.026,3.026,0,0,0-235.748,787.3Z" transform="translate(330.121 -742.535)"/><path class="a" d="M-235.748,796.242a3.025,3.025,0,0,0,3.023-3.023,3.025,3.025,0,0,0-3.023-3.026,3.026,3.026,0,0,0-3.026,3.026A3.025,3.025,0,0,0-235.748,796.242Z" transform="translate(330.121 -732.122)"/><path class="a" d="M-235.748,805.186a3.023,3.023,0,0,0,3.023-3.023,3.025,3.025,0,0,0-3.023-3.025,3.026,3.026,0,0,0-3.026,3.025A3.024,3.024,0,0,0-235.748,805.186Z" transform="translate(330.121 -721.709)"/><path class="a" d="M-235.748,814.13a3.023,3.023,0,0,0,3.023-3.023,3.025,3.025,0,0,0-3.023-3.026,3.026,3.026,0,0,0-3.026,3.026A3.024,3.024,0,0,0-235.748,814.13Z" transform="translate(330.121 -711.297)"/><path class="a" d="M-227.306,769.41a3.024,3.024,0,0,0,3.023-3.026,3.022,3.022,0,0,0-3.023-3.023,3.024,3.024,0,0,0-3.026,3.023A3.026,3.026,0,0,0-227.306,769.41Z" transform="translate(303.409 -763.36)"/><path class="a" d="M-227.306,778.354a3.024,3.024,0,0,0,3.023-3.025,3.022,3.022,0,0,0-3.023-3.024,3.024,3.024,0,0,0-3.026,3.024A3.026,3.026,0,0,0-227.306,778.354Z" transform="translate(303.409 -752.947)"/><path class="a" d="M-227.306,787.3a3.024,3.024,0,0,0,3.023-3.026,3.024,3.024,0,0,0-3.023-3.023,3.025,3.025,0,0,0-3.026,3.023A3.026,3.026,0,0,0-227.306,787.3Z" transform="translate(303.409 -742.535)"/><path class="a" d="M-227.306,796.242a3.023,3.023,0,0,0,3.023-3.023,3.024,3.024,0,0,0-3.023-3.026,3.026,3.026,0,0,0-3.026,3.026A3.025,3.025,0,0,0-227.306,796.242Z" transform="translate(303.409 -732.122)"/><path class="a" d="M-227.306,805.186a3.022,3.022,0,0,0,3.023-3.023,3.024,3.024,0,0,0-3.023-3.025,3.026,3.026,0,0,0-3.026,3.025A3.024,3.024,0,0,0-227.306,805.186Z" transform="translate(303.409 -721.709)"/><path class="a" d="M-218.868,769.41a3.026,3.026,0,0,0,3.026-3.026,3.024,3.024,0,0,0-3.026-3.023,3.022,3.022,0,0,0-3.023,3.023A3.024,3.024,0,0,0-218.868,769.41Z" transform="translate(276.7 -763.36)"/><path class="a" d="M-218.868,778.354a3.026,3.026,0,0,0,3.026-3.025,3.024,3.024,0,0,0-3.026-3.024,3.022,3.022,0,0,0-3.023,3.024A3.024,3.024,0,0,0-218.868,778.354Z" transform="translate(276.7 -752.947)"/><path class="a" d="M-218.868,787.3a3.026,3.026,0,0,0,3.026-3.026,3.025,3.025,0,0,0-3.026-3.023,3.024,3.024,0,0,0-3.023,3.023A3.024,3.024,0,0,0-218.868,787.3Z" transform="translate(276.7 -742.535)"/><path class="a" d="M-218.868,796.242a3.025,3.025,0,0,0,3.026-3.023,3.026,3.026,0,0,0-3.026-3.026,3.024,3.024,0,0,0-3.023,3.026A3.023,3.023,0,0,0-218.868,796.242Z" transform="translate(276.7 -732.122)"/><path class="a" d="M-210.423,769.41a3.024,3.024,0,0,0,3.023-3.026,3.022,3.022,0,0,0-3.023-3.023,3.024,3.024,0,0,0-3.026,3.023A3.026,3.026,0,0,0-210.423,769.41Z" transform="translate(249.988 -763.36)"/><path class="a" d="M-210.423,778.354a3.024,3.024,0,0,0,3.023-3.025,3.022,3.022,0,0,0-3.023-3.024,3.024,3.024,0,0,0-3.026,3.024A3.026,3.026,0,0,0-210.423,778.354Z" transform="translate(249.988 -752.947)"/><path class="a" d="M-210.423,787.3a3.024,3.024,0,0,0,3.023-3.026,3.024,3.024,0,0,0-3.023-3.023,3.025,3.025,0,0,0-3.026,3.023A3.026,3.026,0,0,0-210.423,787.3Z" transform="translate(249.988 -742.535)"/><path class="a" d="M-201.985,769.41a3.026,3.026,0,0,0,3.026-3.026,3.024,3.024,0,0,0-3.026-3.023,3.022,3.022,0,0,0-3.023,3.023A3.024,3.024,0,0,0-201.985,769.41Z" transform="translate(223.278 -763.36)"/><path class="a" d="M-201.985,778.354a3.026,3.026,0,0,0,3.026-3.025,3.024,3.024,0,0,0-3.026-3.024,3.022,3.022,0,0,0-3.023,3.024A3.024,3.024,0,0,0-201.985,778.354Z" transform="translate(223.278 -752.947)"/><path class="a" d="M-193.543,769.41a3.026,3.026,0,0,0,3.026-3.026,3.024,3.024,0,0,0-3.026-3.023,3.024,3.024,0,0,0-3.023,3.023A3.025,3.025,0,0,0-193.543,769.41Z" transform="translate(196.566 -763.36)"/></svg>