<svg xmlns="http://www.w3.org/2000/svg" width="34.215" height="24.819" viewBox="0 0 34.215 24.819"><defs><style>.a{fill:#ee6f57;}.b{fill:#fff;}</style></defs><g transform="translate(-1009.785 -3410)"><g transform="translate(1009.785 3407.487)"><path class="a" d="M27.041,14.487a.861.861,0,0,0-.059-.066l-1.01-.975c.838-.19,1.74-.892,1.74-1.612,0-.839-1.164-1.137-2.158-1.137-1.039,0-1.16.712-1.172,1.215L21.776,9.4a3.678,3.678,0,0,0-2.285-.937H9.336A3.68,3.68,0,0,0,7.052,9.4L4.446,11.913c-.014-.5-.134-1.215-1.172-1.215-.995,0-2.159.3-2.159,1.137,0,.72.9,1.422,1.74,1.612l-1.01.975c-.023.022-.039.044-.059.066A5.659,5.659,0,0,0,0,18.367v3.694a3.37,3.37,0,0,0,.925,2.317v1.433a1.545,1.545,0,0,0,1.564,1.521H4.38a1.544,1.544,0,0,0,1.563-1.521v-.367H22.885v.367a1.543,1.543,0,0,0,1.564,1.521h1.89A1.544,1.544,0,0,0,27.9,25.811V24.379a3.367,3.367,0,0,0,.925-2.317V18.367A5.652,5.652,0,0,0,27.041,14.487ZM8.009,10.516a2.606,2.606,0,0,1,1.327-.537H19.492a2.606,2.606,0,0,1,1.327.537l3.418,3.312H4.592ZM1.173,17.808A1.62,1.62,0,0,1,2.764,16.16c.878,0,3.749,1.685,3.749,2.595s-2.871.7-3.749.7A1.618,1.618,0,0,1,1.173,17.808Zm4.771,6.017H5.338l-1.8,0a3.418,3.418,0,0,1-1.1-.531,1.56,1.56,0,0,1-.3-.3,1.183,1.183,0,0,1-.167-.305,1.39,1.39,0,0,1,.238-1.213H5.282l2.045,2.348Zm12.881,0H10a1.667,1.667,0,0,1-1.666-1.666H20.491A1.666,1.666,0,0,1,18.825,23.826Zm.387-2.8h-9.6c-1,0-1.812-1.233-1.812-2.754h13.22C21.024,19.791,20.212,21.024,19.212,21.024Zm7.641,1.666a1.192,1.192,0,0,1-.168.3,1.527,1.527,0,0,1-.3.3,3.387,3.387,0,0,1-1.1.531l-1.8,0H21.5l2.046-2.348h3.067A1.387,1.387,0,0,1,26.853,22.69Zm-.788-3.236c-.878,0-3.748.209-3.748-.7s2.871-2.595,3.748-2.595a1.648,1.648,0,0,1,0,3.294Z"/></g><circle class="b" cx="8" cy="8" r="8" transform="translate(1028 3410)"/><g transform="translate(1030 3411.313)"><g transform="translate(0 1.688)"><g transform="translate(0 0)"><path class="a" d="M253.3,423.168c-.091.023-.183.043-.275.06a.442.442,0,0,0,.161.87c.109-.02.219-.044.328-.071a.442.442,0,0,0-.214-.858Z" transform="translate(-246.693 -413.19)"/><path class="a" d="M412.588,137.081a.442.442,0,0,0,.84-.278c-.035-.106-.074-.212-.115-.315a.442.442,0,1,0-.821.328C412.526,136.9,412.559,136.992,412.588,137.081Z" transform="translate(-402.707 -133.029)"/><path class="a" d="M321.327,393.985c-.078.051-.159.1-.24.148a.442.442,0,1,0,.442.766c.1-.056.192-.115.285-.176a.442.442,0,0,0-.487-.738Z" transform="translate(-313.28 -384.637)"/><path class="a" d="M428.518,207.736a.442.442,0,1,0-.884.035c0,.093,0,.188,0,.281a.442.442,0,1,0,.884.02C428.524,207.96,428.523,207.848,428.518,207.736Z" transform="translate(-417.523 -202.45)"/><path class="a" d="M377.656,344.157a.442.442,0,0,0-.619.088c-.056.075-.115.149-.176.22a.442.442,0,0,0,.05.623l.032.025a.442.442,0,0,0,.591-.075c.072-.085.143-.173.21-.263A.442.442,0,0,0,377.656,344.157Z" transform="translate(-367.848 -335.973)"/><path class="a" d="M414.427,279.372a.442.442,0,0,0-.554.29c-.028.089-.059.178-.092.266a.442.442,0,0,0,.826.315c.04-.1.077-.211.11-.316A.442.442,0,0,0,414.427,279.372Z" transform="translate(-403.969 -272.786)"/><path class="a" d="M4.682,11.73a4.566,4.566,0,0,1-1.134-.36l-.013-.007c-.085-.04-.169-.083-.251-.127h0a4.717,4.717,0,0,1-.44-.275A4.614,4.614,0,0,1,2.862,3.4l.016-.011a4.622,4.622,0,0,1,5.18-.042l-.345.5c-.1.139-.037.24.131.225l1.5-.134a.247.247,0,0,0,.224-.323l-.4-1.452C9.12,2,9,1.982,8.909,2.12l-.346.5a5.461,5.461,0,0,0-4-.851q-.212.037-.419.089h0l-.016,0A5.452,5.452,0,0,0,1.1,3.891l-.019.023-.074.1c-.04.057-.079.115-.117.173,0,.007-.008.014-.012.021A5.452,5.452,0,0,0,.006,7.426s0,.007,0,.011c0,.111.014.223.026.334,0,.007,0,.014,0,.021.012.111.028.223.047.334a5.457,5.457,0,0,0,1.539,2.959l.006.006,0,0a5.572,5.572,0,0,0,.7.589,5.452,5.452,0,0,0,2.193.918.442.442,0,0,0,.156-.87Z" transform="translate(0 -1.688)"/><path class="a" d="M206.345,83.2a.358.358,0,0,0-.358.358V87.12l3.26,1.685a.358.358,0,0,0,.329-.636L206.7,86.684V83.556A.358.358,0,0,0,206.345,83.2Z" transform="translate(-201.116 -81.271)"/></g></g></g></g></svg>