<svg xmlns="http://www.w3.org/2000/svg" width="32" height="32" viewBox="0 0 32 32"><defs><style>.a{fill:none;opacity:0;}.b{fill:#1a1a1a;}</style></defs><g transform="translate(-262 -4450)"><rect class="a" width="32" height="32" transform="translate(262 4450)"/><g transform="translate(266.5 4452.896)"><g transform="translate(0 1.688)"><g transform="translate(0 0)"><path class="b" d="M254,423.183c-.19.047-.383.089-.575.125a.925.925,0,1,0,.337,1.818c.229-.042.459-.092.685-.149a.925.925,0,0,0-.447-1.794Z" transform="translate(-240.175 -402.318)"/><path class="b" d="M412.728,138.031a.925.925,0,0,0,1.755-.581c-.073-.221-.154-.443-.24-.658a.925.925,0,1,0-1.717.686C412.6,137.66,412.667,137.846,412.728,138.031Z" transform="translate(-392.067 -129.559)"/><path class="b" d="M321.83,394.065c-.163.108-.331.212-.5.31a.925.925,0,1,0,.924,1.6c.2-.116.4-.24.6-.368a.925.925,0,0,0-1.019-1.543Z" transform="translate(-305.003 -374.52)"/><path class="b" d="M429.483,208.2a.925.925,0,1,0-1.848.073c.008.2.01.393.005.588a.925.925,0,1,0,1.849.041C429.494,208.668,429.492,208.432,429.483,208.2Z" transform="translate(-406.492 -197.145)"/><path class="b" d="M378.639,344.254a.924.924,0,0,0-1.295.185c-.117.156-.241.311-.368.46a.925.925,0,0,0,.1,1.3c.022.019.045.036.068.052a.925.925,0,0,0,1.236-.157c.151-.177.3-.362.439-.549A.925.925,0,0,0,378.639,344.254Z" transform="translate(-358.129 -327.141)"/><path class="b" d="M415.164,279.394a.925.925,0,0,0-1.159.606c-.058.186-.123.373-.193.556a.925.925,0,0,0,1.728.658c.083-.218.16-.44.23-.662A.925.925,0,0,0,415.164,279.394Z" transform="translate(-393.296 -265.624)"/><path class="b" d="M9.79,22.686a9.547,9.547,0,0,1-2.372-.754l-.026-.014c-.177-.083-.354-.173-.526-.266l0,0a9.864,9.864,0,0,1-.92-.575,9.648,9.648,0,0,1,.04-15.8l.033-.023a9.665,9.665,0,0,1,10.832-.087l-.722,1.044c-.2.291-.077.5.274.471L19.539,6.4a.517.517,0,0,0,.468-.676l-.843-3.036c-.094-.34-.336-.381-.537-.091L17.9,3.639A11.418,11.418,0,0,0,9.536,1.86q-.444.077-.876.187H8.655l-.033.009A11.4,11.4,0,0,0,2.3,6.294c-.013.016-.027.031-.04.048-.052.071-.1.143-.155.215-.083.118-.166.24-.244.361-.01.015-.017.03-.026.044A11.4,11.4,0,0,0,.012,13.687c0,.008,0,.016,0,.024.01.232.029.467.054.7,0,.015,0,.029.007.044.026.233.058.466.1.7A11.411,11.411,0,0,0,3.39,21.34l.012.012,0,0a11.65,11.65,0,0,0,1.473,1.231,11.4,11.4,0,0,0,4.585,1.919.925.925,0,0,0,.326-1.82Z" transform="translate(0 -1.688)"/><path class="b" d="M206.735,83.2a.748.748,0,0,0-.748.748V91.4l6.816,3.524a.748.748,0,0,0,.687-1.329l-6.007-3.106V83.946A.748.748,0,0,0,206.735,83.2Z" transform="translate(-195.803 -79.168)"/></g></g></g></g></svg>