<svg id="man_1_" data-name="man (1)" xmlns="http://www.w3.org/2000/svg" xmlns:xlink="http://www.w3.org/1999/xlink" width="224.852" height="224.852" viewBox="0 0 224.852 224.852">
  <defs>
    <clipPath id="clip-path">
      <circle id="Ellipse_49" data-name="Ellipse 49" cx="112.426" cy="112.426" r="112.426"/>
    </clipPath>
    <clipPath id="clip-path-2">
      <circle id="Ellipse_50" data-name="Ellipse 50" cx="112.426" cy="112.426" r="112.426" fill="#533b26"/>
    </clipPath>
  </defs>
  <g id="Group_105" data-name="Group 105">
    <circle id="Ellipse_48" data-name="Ellipse 48" cx="112.426" cy="112.426" r="112.426" transform="translate(0 0)" fill="#ee6f57"/>
    <g id="Group_90" data-name="Group 90" transform="translate(0 0)" clip-path="url(#clip-path)">
      <path id="Path_245" data-name="Path 245" d="M152.271,60.949V98.314c0,.541-.013,1.082-.025,1.622-.024,1.119-.086,2.236-.184,3.341-.024.381-.062.761-.111,1.143-.16,1.585-.38,3.145-.663,4.694-.1.516-.2,1.019-.308,1.524a2.148,2.148,0,0,1-.061.307c-.1.516-.222,1.021-.344,1.524-.049.27-.123.54-.184.811-.062.233-.123.467-.2.7-.259,1.007-.553,1.991-.862,2.973-.147.467-.294.921-.454,1.389-.013.049-.037.1-.049.147q-.222.626-.442,1.252c-.049.123-.1.245-.148.381-.147.393-.294.786-.454,1.18-.184.479-.38.947-.577,1.414-.172.418-.356.835-.54,1.254-.024.074-.062.135-.086.208-.209.442-.405.886-.614,1.315q-.314.681-.664,1.365c-.442.9-.921,1.794-1.4,2.666q-.332.59-.664,1.18a72.224,72.224,0,0,1-6.278,9.141c-.308.405-.626.8-.958,1.18-.455.552-.923,1.094-1.389,1.622-.418.467-.835.933-1.266,1.389-1.18,1.266-2.384,2.47-3.613,3.6-.245.246-.5.467-.762.7-.417.381-.834.749-1.266,1.105-.331.3-.675.577-1.021.86-.884.724-1.769,1.425-2.665,2.076-.369.283-.751.553-1.131.811-.614.442-1.241.86-1.868,1.266-.344.233-.7.454-1.058.663-1.254.774-2.518,1.487-3.772,2.1-.307.159-.614.307-.921.454s-.626.3-.958.442q-.609.276-1.217.516a3.822,3.822,0,0,1-.479.184c-.478.2-.97.381-1.45.54-.6.221-1.217.405-1.818.577-.418.123-.847.233-1.266.331a.17.17,0,0,1-.086.025c-.418.1-.835.2-1.254.27a2.925,2.925,0,0,1-.331.061c-.344.061-.688.123-1.033.16-.491.074-.982.135-1.474.16a3.553,3.553,0,0,1-.5.037c-.392.025-.785.037-1.168.037H102.2q-.572,0-1.143-.037a2.641,2.641,0,0,1-.443-.037c-.343-.012-.7-.05-1.068-.1a1.524,1.524,0,0,1-.233-.024c-.455-.061-.909-.135-1.377-.221-.392-.061-.785-.148-1.191-.246a35.233,35.233,0,0,1-6.45-2.175,47.028,47.028,0,0,1-5.64-2.973c-.947-.577-1.893-1.191-2.826-1.843-.467-.332-.933-.663-1.4-1.007q-2.194-1.6-4.338-3.49c-.392-.356-.785-.712-1.178-1.082s-.786-.724-1.168-1.08q-1.439-1.382-2.8-2.875-.534-.57-1.07-1.18c-.982-1.105-1.941-2.248-2.85-3.441-.357-.43-.688-.872-1.021-1.315q-1.861-2.468-3.527-5.148c-.294-.479-.589-.972-.871-1.45-.344-.577-.675-1.166-1.007-1.757a67,67,0,0,1-3.343-6.881c-.147-.344-.3-.688-.418-1.031-.2-.442-.369-.9-.528-1.34q-.367-.977-.7-1.954c-.221-.651-.429-1.315-.638-1.978-.2-.639-.381-1.278-.553-1.929-.2-.688-.38-1.389-.54-2.1-.013-.074-.037-.147-.049-.221q-.35-1.474-.626-2.985c-.246-1.328-.442-2.679-.59-4.043-.061-.43-.1-.86-.135-1.291-.049-.454-.085-.9-.11-1.352-.062-.823-.1-1.659-.124-2.494-.012-.541-.025-1.082-.025-1.622V60.949A50.027,50.027,0,0,1,102.2,10.929h.049a50.568,50.568,0,0,1,11.082,1.229A50.157,50.157,0,0,1,141.614,30.1,49.768,49.768,0,0,1,152.271,60.949Z" transform="translate(10.186 2.132)" fill="#533b26"/>
    </g>
    <g id="Group_91" data-name="Group 91" transform="translate(0 0)" clip-path="url(#clip-path-2)">
      <path id="Path_246" data-name="Path 246" d="M169.891,216.006v.012H39.538v-.012a64.848,64.848,0,0,1,3.478-21.048q.608-1.787,1.327-3.539v-.012c.478-1.168.982-2.31,1.523-3.441A64.513,64.513,0,0,1,53.8,175.312c.786-.97,1.585-1.917,2.409-2.826.405-.467.835-.921,1.266-1.376s.86-.884,1.3-1.327a64.86,64.86,0,0,1,7.041-6.07c1.24-.921,2.494-1.782,3.8-2.617s2.629-1.61,3.981-2.347a.078.078,0,0,1,.049-.024c.528-.282,1.045-.589,1.561-.909,1.021-.614,2.027-1.278,2.987-1.99.491-.344.958-.7,1.425-1.082,1.105-.884,2.174-1.831,3.194-2.826.331-.331.664-.663,1-1.007.687-.713,1.338-1.463,1.966-2.224.308-.368.615-.749.9-1.131s.577-.773.86-1.168a40.888,40.888,0,0,0,7.643-23.9l9.5.049,9.767.049a41.129,41.129,0,0,0,15.445,32.167c.455.369.909.725,1.365,1.056s.9.651,1.364.958c.1.074.184.135.283.2.442.3.884.59,1.352.86.5.307,1.021.614,1.536.9a.6.6,0,0,1,.221.111c1.082.6,2.151,1.229,3.2,1.88.5.307,1.007.626,1.5.984q1.531.995,2.985,2.1a.013.013,0,0,0,.013.013h.012a65.8,65.8,0,0,1,7.028,6.07A64.852,64.852,0,0,1,169.891,216.006Z" transform="translate(7.713 23.895)" fill="#533b26"/>
    </g>
    <g id="Group_92" data-name="Group 92" transform="translate(0 0)" clip-path="url(#clip-path)">
      <path id="Path_247" data-name="Path 247" d="M169.892,210.747H39.539A64.875,64.875,0,0,1,43.017,189.7q.608-1.789,1.327-3.539c-.013-.013,0-.013,0-.013.467-1.168.982-2.31,1.523-3.439A64.513,64.513,0,0,1,53.8,170.052c.786-.972,1.586-1.917,2.409-2.826.405-.467.835-.921,1.266-1.376s.86-.884,1.3-1.327a64.73,64.73,0,0,1,7.041-6.07c1.24-.921,2.494-1.782,3.8-2.617s2.629-1.622,3.981-2.359a.044.044,0,0,1,.049-.012v-.012c.528-.3,1.044-.59,1.561-.9a37.972,37.972,0,0,0,4.387-3.1l.025.024a35.021,35.021,0,0,0,25.054,10.579h.1A35.1,35.1,0,0,0,129.888,149.5l.013-.012a32.9,32.9,0,0,0,2.715,2.027c.1.073.184.135.282.2.442.3.9.577,1.352.86.5.307,1.021.6,1.536.884a1.193,1.193,0,0,1,.221.11c1.082.6,2.151,1.229,3.2,1.892.5.307,1.007.626,1.5.984,1.021.651,2.016,1.364,2.985,2.1h.025a65.263,65.263,0,0,1,26.181,52.209Z" transform="translate(7.713 29.157)" fill="#c7d4e2"/>
    </g>
    <g id="Group_93" data-name="Group 93" transform="translate(0 0)" clip-path="url(#clip-path)">
      <path id="Path_248" data-name="Path 248" d="M152.271,84.05c0,.541-.013,1.082-.025,1.622-.024,1.119-.086,2.236-.184,3.341-.024.381-.062.761-.111,1.143-.16,1.585-.38,3.145-.663,4.694-.1.516-.2,1.019-.308,1.524a2.148,2.148,0,0,1-.061.307c-.1.516-.222,1.021-.344,1.524-.062.3-.135.577-.222.86a5.512,5.512,0,0,1-.159.651c-.259,1.007-.553,1.991-.862,2.973-.147.467-.294.921-.454,1.389-.013.049-.037.1-.049.147q-.222.626-.442,1.252c-.049.123-.1.245-.148.381-.147.393-.294.786-.454,1.18-.184.479-.38.947-.577,1.414-.172.418-.356.835-.54,1.254-.024.074-.062.135-.086.208-.209.442-.405.886-.614,1.315q-.314.681-.664,1.365c-.442.9-.921,1.794-1.4,2.666q-.332.59-.664,1.18a72.224,72.224,0,0,1-6.278,9.141c-.308.405-.626.8-.958,1.18-.455.552-.923,1.094-1.389,1.622-.418.467-.835.933-1.266,1.389-1.18,1.266-2.384,2.47-3.613,3.6-.245.246-.5.467-.762.7-.417.381-.834.749-1.266,1.105-.331.3-.675.577-1.021.86-.884.724-1.769,1.425-2.665,2.076-.369.283-.751.553-1.131.811-.614.442-1.24.86-1.868,1.266-.344.233-.7.454-1.058.663-1.254.774-2.518,1.487-3.772,2.1-.307.159-.614.307-.921.454s-.626.3-.958.442q-.609.276-1.217.516a3.822,3.822,0,0,1-.479.184c-.478.2-.97.381-1.45.54-.6.221-1.217.405-1.818.577-.418.123-.847.233-1.266.331a.17.17,0,0,1-.086.025c-.418.1-.835.2-1.254.27a2.925,2.925,0,0,1-.331.061c-.344.061-.688.123-1.033.16-.491.074-.982.135-1.474.16a3.553,3.553,0,0,1-.5.037c-.392.025-.785.037-1.168.037H102.2q-.572,0-1.142-.037a2.641,2.641,0,0,1-.443-.037c-.343-.012-.7-.05-1.068-.1a1.524,1.524,0,0,1-.233-.024c-.455-.061-.909-.135-1.377-.221-.392-.061-.785-.148-1.191-.246a35.233,35.233,0,0,1-6.45-2.175,47.027,47.027,0,0,1-5.64-2.973c-.947-.565-1.88-1.18-2.826-1.843-.467-.332-.933-.663-1.4-1.007q-2.194-1.6-4.338-3.49c-.392-.356-.785-.712-1.178-1.082s-.786-.724-1.168-1.08q-1.439-1.382-2.8-2.875-.534-.57-1.07-1.18c-.982-1.105-1.941-2.248-2.85-3.441-.357-.43-.688-.872-1.021-1.315q-1.861-2.468-3.527-5.148c-.294-.479-.589-.972-.871-1.45-.344-.577-.675-1.166-1.007-1.757a67,67,0,0,1-3.343-6.881c-.147-.344-.3-.688-.418-1.031-.2-.442-.369-.9-.528-1.34q-.367-.977-.7-1.954c-.221-.651-.429-1.315-.638-1.978-.2-.639-.381-1.278-.553-1.929-.2-.688-.38-1.389-.54-2.1-.013-.074-.037-.147-.049-.221q-.35-1.474-.626-2.985c-.246-1.328-.442-2.679-.59-4.043-.061-.43-.1-.86-.135-1.291-.049-.454-.085-.9-.11-1.352-.062-.823-.1-1.659-.124-2.494-.012-.541-.025-1.082-.025-1.622l7.988,15.7,13.724,5.984,16.23,1.463,12.042,1.093h.074l11.267,1.021,25.1,2.261Z" transform="translate(10.186 16.396)" fill="#2c2c2c"/>
    </g>
    <g id="Group_94" data-name="Group 94" transform="translate(0 0)" clip-path="url(#clip-path)">
      <path id="Path_249" data-name="Path 249" d="M141.616,30.1a68.8,68.8,0,0,1-9.387,15.359c-.221.271-.442.541-.675.811a68.876,68.876,0,0,1-29.354,20.7,66.939,66.939,0,0,1-9.387,2.7q-3.225.681-6.561,1.07a71.131,71.131,0,0,1-7.8.43,68.6,68.6,0,0,1-8.895-.577A64.9,64.9,0,0,1,61.187,69c-1.561-.393-3.085-.847-4.6-1.352-1.487-.491-2.936-1.033-4.374-1.622V60.952A50.027,50.027,0,0,1,102.2,10.932h.049a50.568,50.568,0,0,1,11.082,1.229A50.174,50.174,0,0,1,141.616,30.1Z" transform="translate(10.187 2.133)" fill="#2c2c2c"/>
    </g>
    <g id="Group_95" data-name="Group 95" transform="translate(0 0)" clip-path="url(#clip-path)">
      <path id="Path_250" data-name="Path 250" d="M140.766,60.237v9.841A76.7,76.7,0,0,1,120.074,45.6c-.012-.012-.012-.037-.025-.049a76.212,76.212,0,0,1-8.858-30.976,50.064,50.064,0,0,1,29.575,45.659Z" transform="translate(21.691 2.844)" fill="#2c2c2c"/>
    </g>
    <g id="Group_96" data-name="Group 96" transform="translate(0 0)" clip-path="url(#clip-path)">
      <path id="Path_251" data-name="Path 251" d="M58.077,56.246c-.527.921-1.007,1.868-1.487,2.838-.183.38-.368.786-.552,1.18A41.648,41.648,0,0,0,52.228,75.7c0,.135-.013.282-.013.418V56.848c0-.688.025-1.365.025-2.028C54.182,55.324,56.123,55.816,58.077,56.246Z" transform="translate(10.186 10.694)" fill="#2c2c2c"/>
    </g>
    <g id="Group_97" data-name="Group 97" transform="translate(0 0)" clip-path="url(#clip-path)">
      <path id="Path_252" data-name="Path 252" d="M131.054,56.245c.743,1.306,1.407,2.645,2.044,4.017a41.172,41.172,0,0,1,3.822,15.856V56.841c0-.678-.025-1.355-.025-2.017C134.955,55.325,133.018,55.809,131.054,56.245Z" transform="translate(25.566 10.695)" fill="#2c2c2c"/>
    </g>
    <g id="Group_98" data-name="Group 98" transform="translate(0 0)" clip-path="url(#clip-path)">
      <path id="Path_253" data-name="Path 253" d="M145.381,60.458a.425.425,0,0,0-.369-.418,133.923,133.923,0,0,0-18.3-1.365c-9.72,0-22.264,3.047-24.451,3.047h-1.941c-1.021,0-4.288-.663-8.466-1.364a101.827,101.827,0,0,0-15.985-1.684,134.436,134.436,0,0,0-15.641,1.007c-1.254.148-2.175.282-2.654.356a.425.425,0,0,0-.369.418l-.1,5.221a.456.456,0,0,0,.282.418l.589.209c.872.332.8,16.071,5.493,20,2.789,2.322,5.271,3.649,15.727,3.649,6.058,0,9.867-1.634,13.479-6.512,2.605-3.5,4.914-11.783,4.914-11.783.7-3.416,3.243-3.686,3.65-3.711h.049c.085,0,2.949.049,3.7,3.711,0,0,2.31,8.282,4.914,11.783,3.612,4.878,7.421,6.512,13.478,6.512,10.457,0,12.938-1.327,15.727-3.649,4.694-3.932,4.62-19.671,5.493-20l.59-.209a.454.454,0,0,0,.282-.418Zm-52.7,18.627c-1.536,3.637-5.5,8.331-11.1,8.613-16.772.847-17.546-3.834-18.628-7.545a25.54,25.54,0,0,1-.947-10.678c.442-3.711,1.377-5.886,3.061-6.979A7.636,7.636,0,0,1,68.6,61.279a67.332,67.332,0,0,1,9.239-.43,46.487,46.487,0,0,1,7.457.577c5.972.958,10,2.987,10,4.988A37.234,37.234,0,0,1,92.682,79.085Zm46.948,1.068c-1.08,3.711-1.855,8.392-18.627,7.545-5.591-.282-9.559-4.976-11.1-8.613a37.2,37.2,0,0,1-2.616-12.668c0-2.752,7.643-5.567,17.459-5.567s11.389.737,12.767,1.647c1.683,1.093,2.616,3.269,3.059,6.979A25.494,25.494,0,0,1,139.629,80.153Z" transform="translate(11.141 11.446)" fill="#1a1a1a"/>
    </g>
    <g id="Group_99" data-name="Group 99" transform="translate(0 0)" clip-path="url(#clip-path)">
      <path id="Path_254" data-name="Path 254" d="M102.3,94.334l-.013,12.116-.012,4.239v3.329l-.013,11.058v.012l-.012-.012h-.013l-.036-.025-48.324-24.6c-.013-.074-.037-.147-.049-.221q-.35-1.474-.626-2.985c-.246-1.328-.442-2.679-.59-4.043-.061-.43-.1-.86-.135-1.291-.049-.454-.085-.9-.11-1.352-.062-.823-.1-1.659-.124-2.494-.012-.541-.025-1.082-.025-1.622V71.764c0,.209.013.418.013.626a48.894,48.894,0,0,0,1.757,11.451,49.7,49.7,0,0,0,3.134,8.441v.012c3.22,6.7,7.533,11.242,11.5,11.979.246.037.5.061.751.086a43.2,43.2,0,0,0,4.8.27c6.266,0,11.832-5.037,15.334-7.077l.074-.037c.184-.111.369-.221.528-.332a.938.938,0,0,1,.147-.086A24.851,24.851,0,0,1,102.2,94.333h.1Z" transform="translate(10.186 14)" fill="#2c2c2c"/>
      <path id="Path_255" data-name="Path 255" d="M144.122,71.764l-.012,14.683a60.234,60.234,0,0,1-.982,10.8c-.259,1.4-.553,2.788-.9,4.165l-11.341,16.379L94.1,125.078H94.09l-.013.012v-.012l-.036-30.746h.1A24.915,24.915,0,0,1,106.095,97.1a.907.907,0,0,1,.135.086c.172.111.356.221.54.332a.246.246,0,0,0,.061.037c3.515,2.04,9.068,7.081,15.335,7.081a43.182,43.182,0,0,0,4.8-.27c.258-.025.5-.049.762-.086,3.957-.737,8.282-5.283,11.488-11.979v-.012a49.7,49.7,0,0,0,3.132-8.441,48.351,48.351,0,0,0,1.758-11.611C144.122,72.071,144.122,71.923,144.122,71.764Z" transform="translate(18.346 14)" fill="#2c2c2c"/>
    </g>
    <g id="Group_100" data-name="Group 100" clip-path="url(#clip-path)">
      <path id="Path_262" data-name="Path 262" d="M12.256,0c6.769,0,12.256,1.7,12.256,3.788S19.024,7.577,12.256,7.577,0,5.881,0,3.788,5.487,0,12.256,0Z" transform="translate(100.17 120.446)" fill="#533b26"/>
    </g>
    <g id="Group_101" data-name="Group 101" transform="translate(0 0)" clip-path="url(#clip-path)">
      <path id="Path_256" data-name="Path 256" d="M64.983,155.174v67.591H59.762V158.984c.7-.565,1.4-1.119,2.114-1.647C62.9,156.576,63.927,155.862,64.983,155.174Z" transform="translate(11.658 30.271)" fill="#435363"/>
      <path id="Path_257" data-name="Path 257" d="M124.021,155.185v67.578h5.221v-63.77Z" transform="translate(24.194 30.274)" fill="#435363"/>
    </g>
    <g id="Group_104" data-name="Group 104" transform="translate(0 0)" clip-path="url(#clip-path)">
      <g id="Group_102" data-name="Group 102" transform="translate(98.132 181.309)">
        <path id="Path_258" data-name="Path 258" d="M82.113,151.713l14.294,17.133,14.3-17.133Z" transform="translate(-82.113 -151.713)" fill="#141720"/>
        <path id="Path_259" data-name="Path 259" d="M95.454,238.273H87l6.107-78.636c.257,1,4.436,1,4.693,0l6.107,78.636Z" transform="translate(-81.159 -150.167)" fill="#141720"/>
      </g>
      <g id="Group_103" data-name="Group 103" transform="translate(85.893 170.236)">
        <path id="Path_260" data-name="Path 260" d="M98.4,153.423l-.036.061-.013.025-5.935,9.965-5.542,9.288-15-20.851c.479-.344.958-.712,1.414-1.093l.025.025a40.871,40.871,0,0,0,7.913-8.355L98.365,153.4Z" transform="translate(-71.872 -142.439)" fill="#e7ecf2"/>
        <path id="Path_261" data-name="Path 261" d="M120.611,151.919l-15,20.851-5.542-9.288-5.948-9.965-.049-.086,17.252-10.984a41.212,41.212,0,0,0,7.925,8.416C119.7,151.231,120.155,151.588,120.611,151.919Z" transform="translate(-67.542 -142.447)" fill="#e7ecf2"/>
      </g>
    </g>
  </g>
</svg>
