<svg xmlns="http://www.w3.org/2000/svg" width="137.892" height="130.476" viewBox="0 0 137.892 130.476">
  <g id="Group_16" data-name="Group 16" transform="translate(-208.311 -567.939)">
    <g id="Group_8" data-name="Group 8">
      <circle id="Ellipse_2" data-name="Ellipse 2" cx="2.946" cy="2.946" r="2.946" transform="translate(208.311 692.522)" fill="#ee6f57"/>
      <circle id="Ellipse_3" data-name="Ellipse 3" cx="2.946" cy="2.946" r="2.946" transform="translate(227.168 692.522)" fill="#ee6f57"/>
      <circle id="Ellipse_4" data-name="Ellipse 4" cx="2.946" cy="2.946" r="2.946" transform="translate(246.025 692.522)" fill="#ee6f57"/>
      <circle id="Ellipse_5" data-name="Ellipse 5" cx="2.946" cy="2.946" r="2.946" transform="translate(264.882 692.522)" fill="#ee6f57"/>
      <circle id="Ellipse_6" data-name="Ellipse 6" cx="2.946" cy="2.946" r="2.946" transform="translate(283.739 692.522)" fill="#ee6f57"/>
      <path id="Path_17" data-name="Path 17" d="M308.489,695.468a2.947,2.947,0,1,1-2.946-2.946A2.946,2.946,0,0,1,308.489,695.468Z" fill="#ee6f57"/>
      <circle id="Ellipse_7" data-name="Ellipse 7" cx="2.946" cy="2.946" r="2.946" transform="translate(321.453 692.522)" fill="#ee6f57"/>
      <circle id="Ellipse_8" data-name="Ellipse 8" cx="2.946" cy="2.946" r="2.946" transform="translate(340.31 692.522)" fill="#ee6f57"/>
    </g>
    <g id="Group_9" data-name="Group 9">
      <circle id="Ellipse_9" data-name="Ellipse 9" cx="2.946" cy="2.946" r="2.946" transform="translate(208.311 674.725)" fill="#ee6f57"/>
      <circle id="Ellipse_10" data-name="Ellipse 10" cx="2.946" cy="2.946" r="2.946" transform="translate(227.168 674.725)" fill="#ee6f57"/>
      <circle id="Ellipse_11" data-name="Ellipse 11" cx="2.946" cy="2.946" r="2.946" transform="translate(246.025 674.725)" fill="#ee6f57"/>
      <circle id="Ellipse_12" data-name="Ellipse 12" cx="2.946" cy="2.946" r="2.946" transform="translate(264.882 674.725)" fill="#ee6f57"/>
      <circle id="Ellipse_13" data-name="Ellipse 13" cx="2.946" cy="2.946" r="2.946" transform="translate(283.739 674.725)" fill="#ee6f57"/>
      <path id="Path_18" data-name="Path 18" d="M308.489,677.671a2.947,2.947,0,1,1-2.946-2.946A2.946,2.946,0,0,1,308.489,677.671Z" fill="#ee6f57"/>
      <circle id="Ellipse_14" data-name="Ellipse 14" cx="2.946" cy="2.946" r="2.946" transform="translate(321.453 674.725)" fill="#ee6f57"/>
      <circle id="Ellipse_15" data-name="Ellipse 15" cx="2.946" cy="2.946" r="2.946" transform="translate(340.31 674.725)" fill="#ee6f57"/>
    </g>
    <g id="Group_10" data-name="Group 10">
      <circle id="Ellipse_16" data-name="Ellipse 16" cx="2.946" cy="2.946" r="2.946" transform="translate(208.311 656.927)" fill="#ee6f57"/>
      <circle id="Ellipse_17" data-name="Ellipse 17" cx="2.946" cy="2.946" r="2.946" transform="translate(227.168 656.927)" fill="#ee6f57"/>
      <circle id="Ellipse_18" data-name="Ellipse 18" cx="2.946" cy="2.946" r="2.946" transform="translate(246.025 656.927)" fill="#ee6f57"/>
      <circle id="Ellipse_19" data-name="Ellipse 19" cx="2.946" cy="2.946" r="2.946" transform="translate(264.882 656.927)" fill="#ee6f57"/>
      <circle id="Ellipse_20" data-name="Ellipse 20" cx="2.946" cy="2.946" r="2.946" transform="translate(283.739 656.927)" fill="#ee6f57"/>
      <path id="Path_19" data-name="Path 19" d="M308.489,659.873a2.947,2.947,0,1,1-2.946-2.946A2.946,2.946,0,0,1,308.489,659.873Z" fill="#ee6f57"/>
      <circle id="Ellipse_21" data-name="Ellipse 21" cx="2.946" cy="2.946" r="2.946" transform="translate(321.453 656.927)" fill="#ee6f57"/>
      <circle id="Ellipse_22" data-name="Ellipse 22" cx="2.946" cy="2.946" r="2.946" transform="translate(340.31 656.927)" fill="#ee6f57"/>
    </g>
    <g id="Group_11" data-name="Group 11">
      <path id="Path_20" data-name="Path 20" d="M214.2,642.076a2.946,2.946,0,1,1-2.946-2.947A2.946,2.946,0,0,1,214.2,642.076Z" fill="#ee6f57"/>
      <path id="Path_21" data-name="Path 21" d="M233.061,642.076a2.947,2.947,0,1,1-2.946-2.947A2.946,2.946,0,0,1,233.061,642.076Z" fill="#ee6f57"/>
      <path id="Path_22" data-name="Path 22" d="M251.918,642.076a2.947,2.947,0,1,1-2.946-2.947A2.946,2.946,0,0,1,251.918,642.076Z" fill="#ee6f57"/>
      <path id="Path_23" data-name="Path 23" d="M270.775,642.076a2.947,2.947,0,1,1-2.946-2.947A2.946,2.946,0,0,1,270.775,642.076Z" fill="#ee6f57"/>
      <path id="Path_24" data-name="Path 24" d="M289.632,642.076a2.946,2.946,0,1,1-2.946-2.947A2.946,2.946,0,0,1,289.632,642.076Z" fill="#ee6f57"/>
      <path id="Path_25" data-name="Path 25" d="M308.489,642.076a2.947,2.947,0,1,1-2.946-2.947A2.946,2.946,0,0,1,308.489,642.076Z" fill="#ee6f57"/>
      <path id="Path_26" data-name="Path 26" d="M327.346,642.076a2.947,2.947,0,1,1-2.946-2.947A2.946,2.946,0,0,1,327.346,642.076Z" fill="#ee6f57"/>
      <path id="Path_27" data-name="Path 27" d="M346.2,642.076a2.947,2.947,0,1,1-2.946-2.947A2.946,2.946,0,0,1,346.2,642.076Z" fill="#ee6f57"/>
    </g>
    <g id="Group_12" data-name="Group 12">
      <path id="Path_28" data-name="Path 28" d="M214.2,624.278a2.946,2.946,0,1,1-2.946-2.946A2.946,2.946,0,0,1,214.2,624.278Z" fill="#ee6f57"/>
      <path id="Path_29" data-name="Path 29" d="M233.061,624.278a2.947,2.947,0,1,1-2.946-2.946A2.946,2.946,0,0,1,233.061,624.278Z" fill="#ee6f57"/>
      <path id="Path_30" data-name="Path 30" d="M251.918,624.278a2.947,2.947,0,1,1-2.946-2.946A2.946,2.946,0,0,1,251.918,624.278Z" fill="#ee6f57"/>
      <path id="Path_31" data-name="Path 31" d="M270.775,624.278a2.947,2.947,0,1,1-2.946-2.946A2.946,2.946,0,0,1,270.775,624.278Z" fill="#ee6f57"/>
      <path id="Path_32" data-name="Path 32" d="M289.632,624.278a2.946,2.946,0,1,1-2.946-2.946A2.946,2.946,0,0,1,289.632,624.278Z" fill="#ee6f57"/>
      <path id="Path_33" data-name="Path 33" d="M308.489,624.278a2.947,2.947,0,1,1-2.946-2.946A2.946,2.946,0,0,1,308.489,624.278Z" fill="#ee6f57"/>
      <path id="Path_34" data-name="Path 34" d="M327.346,624.278a2.947,2.947,0,1,1-2.946-2.946A2.946,2.946,0,0,1,327.346,624.278Z" fill="#ee6f57"/>
      <path id="Path_35" data-name="Path 35" d="M346.2,624.278a2.947,2.947,0,1,1-2.946-2.946A2.946,2.946,0,0,1,346.2,624.278Z" fill="#ee6f57"/>
    </g>
    <g id="Group_13" data-name="Group 13">
      <path id="Path_36" data-name="Path 36" d="M214.2,606.481a2.946,2.946,0,1,1-2.946-2.947A2.946,2.946,0,0,1,214.2,606.481Z" fill="#ee6f57"/>
      <path id="Path_37" data-name="Path 37" d="M233.061,606.481a2.947,2.947,0,1,1-2.946-2.947A2.946,2.946,0,0,1,233.061,606.481Z" fill="#ee6f57"/>
      <path id="Path_38" data-name="Path 38" d="M251.918,606.481a2.947,2.947,0,1,1-2.946-2.947A2.946,2.946,0,0,1,251.918,606.481Z" fill="#ee6f57"/>
      <path id="Path_39" data-name="Path 39" d="M270.775,606.481a2.947,2.947,0,1,1-2.946-2.947A2.946,2.946,0,0,1,270.775,606.481Z" fill="#ee6f57"/>
      <path id="Path_40" data-name="Path 40" d="M289.632,606.481a2.946,2.946,0,1,1-2.946-2.947A2.946,2.946,0,0,1,289.632,606.481Z" fill="#ee6f57"/>
      <path id="Path_41" data-name="Path 41" d="M308.489,606.481a2.947,2.947,0,1,1-2.946-2.947A2.946,2.946,0,0,1,308.489,606.481Z" fill="#ee6f57"/>
      <path id="Path_42" data-name="Path 42" d="M327.346,606.481a2.947,2.947,0,1,1-2.946-2.947A2.946,2.946,0,0,1,327.346,606.481Z" fill="#ee6f57"/>
      <path id="Path_43" data-name="Path 43" d="M346.2,606.481a2.947,2.947,0,1,1-2.946-2.947A2.946,2.946,0,0,1,346.2,606.481Z" fill="#ee6f57"/>
    </g>
    <g id="Group_14" data-name="Group 14">
      <circle id="Ellipse_23" data-name="Ellipse 23" cx="2.946" cy="2.946" r="2.946" transform="translate(208.311 585.737)" fill="#ee6f57"/>
      <circle id="Ellipse_24" data-name="Ellipse 24" cx="2.946" cy="2.946" r="2.946" transform="translate(227.168 585.737)" fill="#ee6f57"/>
      <circle id="Ellipse_25" data-name="Ellipse 25" cx="2.946" cy="2.946" r="2.946" transform="translate(246.025 585.737)" fill="#ee6f57"/>
      <circle id="Ellipse_26" data-name="Ellipse 26" cx="2.946" cy="2.946" r="2.946" transform="translate(264.882 585.737)" fill="#ee6f57"/>
      <circle id="Ellipse_27" data-name="Ellipse 27" cx="2.946" cy="2.946" r="2.946" transform="translate(283.739 585.737)" fill="#ee6f57"/>
      <path id="Path_44" data-name="Path 44" d="M308.489,588.683a2.947,2.947,0,1,1-2.946-2.946A2.946,2.946,0,0,1,308.489,588.683Z" fill="#ee6f57"/>
      <circle id="Ellipse_28" data-name="Ellipse 28" cx="2.946" cy="2.946" r="2.946" transform="translate(321.453 585.737)" fill="#ee6f57"/>
      <circle id="Ellipse_29" data-name="Ellipse 29" cx="2.946" cy="2.946" r="2.946" transform="translate(340.31 585.737)" fill="#ee6f57"/>
    </g>
    <g id="Group_15" data-name="Group 15">
      <circle id="Ellipse_30" data-name="Ellipse 30" cx="2.946" cy="2.946" r="2.946" transform="translate(208.311 567.939)" fill="#ee6f57"/>
      <circle id="Ellipse_31" data-name="Ellipse 31" cx="2.946" cy="2.946" r="2.946" transform="translate(227.168 567.939)" fill="#ee6f57"/>
      <circle id="Ellipse_32" data-name="Ellipse 32" cx="2.946" cy="2.946" r="2.946" transform="translate(246.025 567.939)" fill="#ee6f57"/>
      <circle id="Ellipse_33" data-name="Ellipse 33" cx="2.946" cy="2.946" r="2.946" transform="translate(264.882 567.939)" fill="#ee6f57"/>
      <circle id="Ellipse_34" data-name="Ellipse 34" cx="2.946" cy="2.946" r="2.946" transform="translate(283.739 567.939)" fill="#ee6f57"/>
      <path id="Path_45" data-name="Path 45" d="M308.489,570.886a2.947,2.947,0,1,1-2.946-2.947A2.946,2.946,0,0,1,308.489,570.886Z" fill="#ee6f57"/>
      <circle id="Ellipse_35" data-name="Ellipse 35" cx="2.946" cy="2.946" r="2.946" transform="translate(321.453 567.939)" fill="#ee6f57"/>
      <circle id="Ellipse_36" data-name="Ellipse 36" cx="2.946" cy="2.946" r="2.946" transform="translate(340.31 567.939)" fill="#ee6f57"/>
    </g>
  </g>
</svg>
