<svg id="user_23_" data-name="user (23)" xmlns="http://www.w3.org/2000/svg" width="43.065" height="37.682" viewBox="0 0 43.065 37.682">
  <path id="Path_365" data-name="Path 365" d="M103.276,8.972A8.972,8.972,0,1,1,94.3,0,8.972,8.972,0,0,1,103.276,8.972Zm0,0" transform="translate(-78.155)" fill="#98aef6"/>
  <path id="Path_366" data-name="Path 366" d="M23.775,256H8.523A8.533,8.533,0,0,0,0,264.523v6.28a1.346,1.346,0,0,0,1.346,1.346H30.953A1.346,1.346,0,0,0,32.3,270.8v-6.28A8.533,8.533,0,0,0,23.775,256Zm0,0" transform="translate(0 -234.468)" fill="#98aef6"/>
  <g id="Group_182" data-name="Group 182" transform="translate(25.121 8.974)">
    <path id="Path_367" data-name="Path 367" d="M312.126,174.256H300.462a1.794,1.794,0,1,1,0-3.589h11.663a1.794,1.794,0,1,1,0,3.589Zm0,0" transform="translate(-298.668 -165.287)" fill="#ee6f57"/>
    <path id="Path_368" data-name="Path 368" d="M413.875,112.876l-6.28-5.832a1.349,1.349,0,0,0-2.263.987v11.663a1.347,1.347,0,0,0,2.263.987l6.28-5.832a1.35,1.35,0,0,0,0-1.974Zm0,0" transform="translate(-396.36 -106.688)" fill="#ee6f57"/>
  </g>
</svg>
