<svg xmlns="http://www.w3.org/2000/svg" width="61" height="61" viewBox="0 0 61 61"><defs><style>.a{fill:none;opacity:0;}.b{fill:#2093d5;}</style></defs><g transform="translate(-262.5 -4560.5)"><rect class="a" width="61" height="61" transform="translate(262.5 4560.5)"/><g transform="translate(268.863 4566.863)"><g transform="translate(0 21.951)"><g transform="translate(0)"><path class="b" d="M.645,239.5a.985.985,0,0,0-.585,1.261l.619,1.7,4.71-4.71Z" transform="translate(-0.001 -237.75)"/></g></g><g transform="translate(5.102 38.826)"><path class="b" d="M55.257,420.513l2.836,7.8a.976.976,0,0,0,.51.555.991.991,0,0,0,.416.093.966.966,0,0,0,.341-.061l3.13-1.154Z" transform="translate(-55.257 -420.513)"/></g><g transform="translate(26.294 23.242)"><path class="b" d="M305.7,260.649l-3.246-8.925-7.79,7.79,3.861-1.422a.985.985,0,0,1,.682,1.848l-4.9,1.808a.984.984,0,0,1-1.265-.583c0-.006,0-.012,0-.018l-8.255,8.255,20.336-7.493A.982.982,0,0,0,305.7,260.649Z" transform="translate(-284.783 -251.724)"/></g><g transform="translate(0.002)"><g transform="translate(0 0)"><path class="b" d="M47,16.052,31.246.294a.986.986,0,0,0-1.393,0L.307,29.84a.986.986,0,0,0,0,1.393L16.065,46.991a.975.975,0,0,0,.7.29.989.989,0,0,0,.7-.288L47,17.447A.988.988,0,0,0,47,16.052ZM11.548,27.3l-3.94,3.939a.985.985,0,0,1-1.395-1.393l3.94-3.94A.985.985,0,0,1,11.548,27.3Zm17.009,1.251a3.718,3.718,0,0,1-2.7,1.032,8.138,8.138,0,0,1-5.478-2.616,9.024,9.024,0,0,1-2.46-4.192,4.115,4.115,0,0,1,.877-3.985,4.1,4.1,0,0,1,3.985-.877,9.007,9.007,0,0,1,4.192,2.46C29.709,23.1,30.407,26.7,28.557,28.546Zm12.537-11.1-3.94,3.94a.985.985,0,0,1-1.395-1.393l3.94-3.94a.985.985,0,0,1,1.395,1.393Z" transform="translate(-0.019 -0.006)"/></g></g></g></g></svg>