<svg xmlns="http://www.w3.org/2000/svg" width="72" height="72" viewBox="0 0 72 72"><defs><style>.a{fill:#ffe2e0;}.b{fill:#ee6f57;}</style></defs><g transform="translate(-262.434 -4344.434)"><rect class="a" width="72" height="72" rx="21" transform="translate(262.434 4344.434)"/><g transform="translate(273.295 4355.294)"><path class="b" d="M25.14,0a25.14,25.14,0,1,0,25.14,25.14A25.168,25.168,0,0,0,25.14,0Zm0,44.784A19.645,19.645,0,1,1,44.784,25.14,19.667,19.667,0,0,1,25.14,44.784Z"/><path class="b" d="M261.048,151.921V141.385a2.13,2.13,0,1,0-4.259,0V152.6c0,.033.008.065.01.1a2.117,2.117,0,0,0,.614,1.61l7.932,7.931a2.13,2.13,0,0,0,3.012-3.012Z" transform="translate(-233.733 -126.752)"/></g></g></svg>