<svg xmlns="http://www.w3.org/2000/svg" width="224.85" height="224.85" viewBox="0 0 224.85 224.85"><defs><style>.a{fill:#e6ecff;}.b{fill:#fad207;}.c{fill:#faa515;}.d{fill:#f0b0ab;}.e{fill:#ee6f57;}.f{fill:#2b597f;}</style></defs><g transform="translate(-1135 -2594.075)"><circle class="a" cx="112.425" cy="112.425" r="112.425" transform="translate(1135 2594.075)"/><g transform="translate(1184.521 2612.42)"><path class="b" d="M30.562,60.561l-6.756,6.585a1.271,1.271,0,0,0-.366,1.125l1.6,9.3a.505.505,0,0,1-.234.519.5.5,0,0,1-.5.018L15.95,73.714a1.27,1.27,0,0,0-1.183,0L6.416,78.1a.508.508,0,0,1-.737-.536l1.6-9.3a1.271,1.271,0,0,0-.365-1.125L.155,60.561a.508.508,0,0,1,.28-.867l9.336-1.355a1.272,1.272,0,0,0,.957-.7l4.173-8.46a.51.51,0,0,1,.913,0l4.175,8.46a1.27,1.27,0,0,0,.957.7l9.334,1.355a.509.509,0,0,1,.282.867Z" transform="translate(0 0)"/><path class="b" d="M15.814,190.184l4.174,8.458a1.27,1.27,0,0,0,.957.7l9.334,1.356a.508.508,0,0,1,.282.867l-6.755,6.584a1.272,1.272,0,0,0-.366,1.125l1.595,9.3a.508.508,0,0,1-.738.536l-8.349-4.389a1.271,1.271,0,0,0-1.183,0L6.417,219.1a.508.508,0,0,1-.738-.536l1.595-9.3a1.272,1.272,0,0,0-.366-1.125L.154,201.561a.508.508,0,0,1,.282-.867l9.334-1.356a1.271,1.271,0,0,0,.957-.7l4.174-8.458a.509.509,0,0,1,.912,0Z" transform="translate(0 -105.158)"/><path class="b" d="M15.814,331.184l4.174,8.458a1.27,1.27,0,0,0,.957.7l9.334,1.356a.508.508,0,0,1,.282.867l-6.755,6.584a1.272,1.272,0,0,0-.366,1.125l1.595,9.3a.508.508,0,0,1-.738.536l-8.349-4.389a1.271,1.271,0,0,0-1.183,0L6.417,360.1a.508.508,0,0,1-.738-.536l1.595-9.3a1.272,1.272,0,0,0-.366-1.125L.154,342.561a.508.508,0,0,1,.282-.867l9.334-1.356a1.271,1.271,0,0,0,.957-.7l4.174-8.458a.509.509,0,0,1,.912,0Z" transform="translate(0 -210.316)"/><g transform="translate(0 48.901)"><path class="c" d="M11.91,99.588,6.416,109.77a.508.508,0,0,1-.737-.536l1.6-9.3a1.272,1.272,0,0,0-.365-1.125L.155,92.228a.508.508,0,0,1,.28-.867l11,6.53a1.271,1.271,0,0,1,.47,1.7Z" transform="translate(0 -80.568)"/><path class="c" d="M44.482,49.183l-.745,7.382a1.269,1.269,0,0,1-1.073,1.129l-4.225.646a1.266,1.266,0,0,0,.956-.7l4.174-8.46A.51.51,0,0,1,44.482,49.183Z" transform="translate(-28.669 -48.901)"/><path class="c" d="M11.91,240.588,6.416,250.77a.508.508,0,0,1-.737-.536l1.6-9.3a1.271,1.271,0,0,0-.365-1.125L.155,233.228a.508.508,0,0,1,.28-.867l11,6.53a1.271,1.271,0,0,1,.47,1.7Z" transform="translate(0 -185.726)"/><path class="c" d="M44.482,190.183l-.976,7.425a1.265,1.265,0,0,1-1.055,1.088l-4.011.641a1.265,1.265,0,0,0,.956-.694l4.174-8.46a.51.51,0,0,1,.913,0Z" transform="translate(-28.669 -154.059)"/><path class="c" d="M11.91,381.588,6.416,391.77a.508.508,0,0,1-.737-.536l1.6-9.3a1.271,1.271,0,0,0-.365-1.125L.155,374.228a.508.508,0,0,1,.28-.867l11,6.53a1.271,1.271,0,0,1,.47,1.7Z" transform="translate(0 -290.884)"/><path class="c" d="M44.482,331.183l-.976,7.425a1.265,1.265,0,0,1-1.055,1.088l-4.011.641a1.265,1.265,0,0,0,.956-.694l4.174-8.46A.51.51,0,0,1,44.482,331.183Z" transform="translate(-28.669 -259.217)"/></g><path class="d" d="M253.719,72.821a2.542,2.542,0,0,1,2.542,2.542V87.056a2.542,2.542,0,0,1-2.542,2.542h-76.26a2.542,2.542,0,0,1-2.542-2.542V75.363a2.542,2.542,0,0,1,2.542-2.542Z" transform="translate(-130.453 -17.84)"/><path class="e" d="M182.546,89.6h-5.084a2.541,2.541,0,0,1-2.542-2.542V75.363a2.541,2.541,0,0,1,2.542-2.542H180V87.056A2.541,2.541,0,0,0,182.546,89.6Z" transform="translate(-130.456 -17.84)"/><path class="f" d="M272.6,102.134H219.216a1.906,1.906,0,1,1,0-3.813H272.6a1.906,1.906,0,1,1,0,3.813Z" transform="translate(-162.07 -36.858)"/><path class="d" d="M177.459,230.6a2.542,2.542,0,0,1-2.542-2.542V216.363a2.542,2.542,0,0,1,2.542-2.542h55.924a2.542,2.542,0,0,1,2.542,2.542v11.693a2.542,2.542,0,0,1-2.542,2.542Z" transform="translate(-130.453 -122.998)"/><path class="f" d="M254.8,243.134H219.216a1.906,1.906,0,0,1,0-3.813H254.8a1.906,1.906,0,1,1,0,3.813Z" transform="translate(-162.07 -142.015)"/><path class="d" d="M207.963,354.821a2.542,2.542,0,0,1,2.542,2.542v11.693a2.542,2.542,0,0,1-2.542,2.542h-30.5a2.542,2.542,0,0,1-2.542-2.542V357.363a2.542,2.542,0,0,1,2.542-2.542Z" transform="translate(-130.453 -228.156)"/><path class="f" d="M227.033,384.134h-12.71a1.906,1.906,0,0,1,0-3.813h12.71a1.906,1.906,0,0,1,0,3.813Z" transform="translate(-158.421 -247.173)"/><path class="e" d="M182.543,230.6h-5.084a2.541,2.541,0,0,1-2.542-2.542V216.363a2.541,2.541,0,0,1,2.542-2.542H180v14.235A2.541,2.541,0,0,0,182.543,230.6Z" transform="translate(-130.453 -122.998)"/><path class="e" d="M182.543,371.6h-5.084a2.541,2.541,0,0,1-2.542-2.542V357.363a2.541,2.541,0,0,1,2.542-2.542H180v14.235A2.541,2.541,0,0,0,182.543,371.6Z" transform="translate(-130.453 -228.156)"/></g></g></svg>