<svg xmlns="http://www.w3.org/2000/svg" width="84" height="84" viewBox="0 0 84 84"><defs><style>.a{fill:none;opacity:0;}.b{fill:#080760;}.c{fill:#ee6f56;}</style></defs><g transform="translate(-140 -18)"><rect class="a" width="84" height="84" transform="translate(140 18)"/><g transform="translate(150.029 32.003)"><g transform="translate(-0.029 -0.003)"><path class="b" d="M36.352.058c3.371.191,7.534-.418,11.638.3a16.021,16.021,0,0,1-2.14,31.778c-6.7.176-13.4.059-20.1,0-1.678,0-2.756-.967-2.653-2.345.11-1.561,1.092-2.2,2.587-2.2h5.3c1.532,0,2.7-.682,2.668-2.338s-1.18-2.279-2.734-2.265H27.63c-1.466,0-2.521-.733-2.543-2.25a2.253,2.253,0,0,1,2.477-2.345c2.433-.066,4.874,0,7.329,0,1.869,0,2.932-.85,2.932-2.265s-1.055-2.2-2.932-2.2H19.319a3.723,3.723,0,0,1-2.448-.535,2.118,2.118,0,0,1-.857-2.411A2.367,2.367,0,0,1,18.542,9.3H29.9a12.584,12.584,0,0,0,1.825-.073A2.118,2.118,0,0,0,33.7,6.984a2.015,2.015,0,0,0-1.993-2.2c-2.25-.11-4.507-.051-6.757-.125C23.02,4.6,22.016,3.341,22.485,1.729A2.252,2.252,0,0,1,25,.051C28.524.065,32.057.058,36.352.058Z" transform="translate(-4.229 0.003)"/><path class="b" d="M6.588,55.968a15.127,15.127,0,0,0-4.9.271,1.84,1.84,0,0,0-1.678,2.2c.081,1.576,0,3.159,0,4.742v2.2c0,5.006.579,5.57,5.614,5.475h.235c4.4-.132,7.168-2.638,7.329-6.706C13.4,59.244,11.264,56.584,6.588,55.968Zm2.433,8.208A3.46,3.46,0,0,1,5.43,67.54c-1,0-1.466-.308-1.4-1.356s0-1.942,0-2.932v-2.2c0-1.906.425-2.235,2.25-1.818,1.986.528,3.049,2.441,2.734,4.969Z" transform="translate(0.029 -14.924)"/><path class="c" d="M70.225,66.147c-.044-.733-.066-1.8-.205-2.88a3.276,3.276,0,0,0-1.8-2.594,8.721,8.721,0,0,0-7.087-.278,1.524,1.524,0,0,0-1,2.059c.308,1,1.077.784,1.8.616a5.526,5.526,0,0,1,3.408-.059c.344.139.733.337.733.733s-.491.454-.828.52A24.473,24.473,0,0,0,61.5,65a3.283,3.283,0,0,0-.967,5.709c2.441,1.737,5.189,1.466,7.857.513C70.8,70.376,70.064,68.28,70.225,66.147Zm-5.46,2.807c-.733,0-1.466-.11-1.414-1.011.088-1.085,1.121-.916,1.854-1.041s1.026.205,1.041.909C66.26,68.859,65.556,68.954,64.765,68.954Z" transform="translate(-15.808 -15.964)"/><path class="b" d="M47.956,68.171A30.379,30.379,0,0,0,49.59,61.78c.279-1.62,1.253-1.92,2.609-1.737,1.51.205,1.649,1.261,1.363,2.448A45,45,0,0,1,50.7,70.552c-.557,1.239-1.678,1.312-2.778,1.319a2.546,2.546,0,0,1-2.69-1.466,71.09,71.09,0,0,1-2.785-7.9c-.257-.879-.835-1.913.689-2.323,1.334-.359,2.506-.205,2.983,1.239.528,1.62.865,3.291,1.3,4.94C47.56,66.859,47.721,67.372,47.956,68.171Z" transform="translate(-11.231 -16.023)"/><path class="b" d="M20.89,66.285V64.46a4.925,4.925,0,0,1,6.677-4.507,1.73,1.73,0,0,1,1.3,1.766c0,1.077-.733,1.239-1.62,1.239-1.774,0-2.653.733-2.4,2.653.183,1.466-.037,2.932.059,4.4.073,1.151-.315,1.7-1.466,1.671s-2.382-.051-2.47-1.561c-.11-1.268,0-2.55,0-3.833Z" transform="translate(-5.558 -15.925)"/><path class="b" d="M77.275,66.224V64.949c0-3.76,2.521-5.8,6.288-5.072.975.191,1.678.63,1.73,1.774.059,1.29-.843,1.341-1.7,1.341-1.891,0-2.528.9-2.323,2.734a38.224,38.224,0,0,1,0,4.2c0,.865.11,1.759-1.187,1.737-1.158,0-2.485.2-2.69-1.466-.169-1.319-.147-2.668-.213-4Z" transform="translate(-20.594 -15.953)"/><path class="b" d="M34.09,65.642V61.809c0-.733,0-1.51,1.085-1.466s2.492-.359,2.726,1.092a49.808,49.808,0,0,1,.154,9.638c0,1.114-1.231.733-1.928.77-1.092.059-1.95-.388-1.993-1.62-.059-1.517,0-3.042,0-4.559Z" transform="translate(-9.084 -16.111)"/><path class="b" d="M14.8,4.462c-1.84,0-2.932-.879-2.858-2.294S13.06.02,14.988.079c1.759,0,2.77.828,2.77,2.2S16.7,4.469,14.8,4.462Z" transform="translate(-3.166 -0.018)"/><path class="b" d="M16.567,40.322c-1.678-.044-2.726-.967-2.638-2.323s1.231-2.111,3.276-2.059c1.5.037,2.47.674,2.528,2.235S18.611,40.38,16.567,40.322Z" transform="translate(-3.697 -9.597)"/><path class="b" d="M36.022,53.16c1.341.088,2.155.733,2.2,2.037a1.942,1.942,0,0,1-2.2,2.118,2.078,2.078,0,1,1,0-4.156Z" transform="translate(-9.037 -14.197)"/><path class="c" d="M65.262,17.172c.081,1.363-1.041,2.66-1.781,4.1-.608,1.187-1.224,2.375-1.935,3.5-.857,1.363-2,1.371-2.822,0-1.151-1.928-2.25-3.892-3.232-5.907a5.12,5.12,0,0,1,6.7-6.867,5.321,5.321,0,0,1,3.071,5.167Z" transform="translate(-14.671 -3.091)"/></g></g></g></svg>