<svg xmlns="http://www.w3.org/2000/svg" width="72" height="72" viewBox="0 0 72 72"><defs><style>.a{fill:#e5e5ff;}.b{fill:#080760;}</style></defs><g transform="translate(-262.434 -4344.434)"><rect class="a" width="72" height="72" rx="21" transform="translate(262.434 4344.434)"/><g transform="translate(273.637 4359.833)"><g transform="translate(9.091 30.049)"><path class="b" d="M91.3,382.142l-16.2-8.58a1.3,1.3,0,0,0-1.336.077l-12.391,8.58a1.288,1.288,0,0,0,.731,2.346H90.7a1.287,1.287,0,0,0,.605-2.423Z" transform="translate(-60.814 -373.413)"/></g><g transform="translate(26.252 18.166)"><path class="b" d="M292.818,243.91l-3.811-17.158a1.289,1.289,0,0,0-1.99-.78l-12.394,8.58a1.286,1.286,0,0,0,.131,2.194l16.2,8.58a1.291,1.291,0,0,0,.6.152,1.27,1.27,0,0,0,.78-.265A1.289,1.289,0,0,0,292.818,243.91Z" transform="translate(-274.069 -225.744)"/></g><g transform="translate(5.387 15.45)"><path class="b" d="M45.432,192.9A1.291,1.291,0,0,0,44.2,192H32.448a53.743,53.743,0,0,1-6.6,9.018,3.861,3.861,0,0,1-5.748,0c-.5-.559-1.28-1.452-2.171-2.56l-3.116,14.024a1.287,1.287,0,0,0,1.257,1.566,1.275,1.275,0,0,0,.734-.229l28.128-19.475A1.283,1.283,0,0,0,45.432,192.9Z" transform="translate(-14.784 -192)"/></g><g transform="translate(4.565)"><path class="b" d="M13.578,0A9.023,9.023,0,0,0,4.565,9.013c0,4.625,7.231,12.816,8.055,13.735a1.287,1.287,0,0,0,1.916,0c.824-.919,8.055-9.111,8.055-13.735A9.023,9.023,0,0,0,13.578,0Zm0,12.875A3.863,3.863,0,1,1,17.44,9.013,3.864,3.864,0,0,1,13.578,12.875Z" transform="translate(-4.565)"/></g></g></g></svg>