<svg xmlns="http://www.w3.org/2000/svg" xmlns:xlink="http://www.w3.org/1999/xlink" width="224.85" height="224.85" viewBox="0 0 224.85 224.85"><defs><style>.a{fill:#d0eeff;}.b{clip-path:url(#a);}.c{fill:#823214;}.d{fill:#080760;}.e{fill:#533b26;}.f{fill:#87afb9;}.g{fill:#b4d7dc;}.h{fill:#becff5;}.i{fill:#ee6f57;}.j{fill:#98aef6;}</style><clipPath id="a"><circle class="a" cx="112.425" cy="112.425" r="112.425" transform="translate(554 3917.075)"/></clipPath></defs><g transform="translate(-265 -3554.075)"><circle class="a" cx="112.425" cy="112.425" r="112.425" transform="translate(265 3554.075)"/><g class="b" transform="translate(-289 -363)"><g transform="translate(536.748 3955.5)"><g transform="translate(91.387 200.606)"><path class="c" d="M158.82,486.167h-8.262a2.746,2.746,0,0,0-2.746,2.746v5.169a2.746,2.746,0,0,0,2.746,2.746h8.262a2.746,2.746,0,0,0,2.746-2.746v-5.169A2.746,2.746,0,0,0,158.82,486.167Z" transform="translate(-147.813 -486.167)"/><path class="c" d="M303.444,486.167h-8.262a2.746,2.746,0,0,0-2.746,2.746v5.169a2.746,2.746,0,0,0,2.746,2.746h8.262a2.746,2.746,0,0,0,2.746-2.746v-5.169A2.746,2.746,0,0,0,303.444,486.167Z" transform="translate(-232.761 -486.167)"/></g><g transform="translate(51.748 0)"><g transform="translate(46.802 116.103)"><path class="d" d="M263.972,369.684l-30.1-62.722-56.932-1.446a12.072,12.072,0,1,1,.613-24.137l64.315,1.634a12.072,12.072,0,0,1,10.577,6.845l33.3,69.38a12.073,12.073,0,0,1-21.768,10.447Z" transform="translate(-165.173 -281.375)"/></g><g transform="translate(49.857 44.537)"><path class="e" d="M215.16,144.446l-34.922-8.581a10.06,10.06,0,1,1,4.8-19.54l31.527,7.746,33.39-15.228a10.061,10.061,0,0,1,8.349,18.307l-36.57,16.679A10.065,10.065,0,0,1,215.16,144.446Z" transform="translate(-172.575 -107.934)"/></g><g transform="translate(113.318 40.346)"><path class="f" d="M350.132,98.467a2.628,2.628,0,0,0-4.063.648l-19.358,34.339a2.627,2.627,0,0,0,.515,3.228l20.6,18.855L369.829,116.5Z" transform="translate(-326.372 -97.777)"/></g><g transform="translate(113.526 59.068)"><path class="g" d="M349.848,148.241a8.975,8.975,0,0,0-5.634,4.3l-16.975,30.112a2.746,2.746,0,0,0,3.06,4.011l17.82-4.473,22.007-39.038Z" transform="translate(-326.877 -143.151)"/></g><path class="h" d="M184.8,135.824a15,15,0,0,0-16.749-13.019l-25.326,3.174a15,15,0,0,0-12.827,17.91l14.98,72.734a12.811,12.811,0,0,0,17.58,9.2l31.911-13.63Z" transform="translate(-97.466 -72.063)"/><path class="e" d="M172.652,16.843a22.205,22.205,0,1,0-16.18,26.914,22.205,22.205,0,0,0,16.18-26.914Z" transform="translate(-97.061 0)"/><path class="e" d="M262.84,219.605H262.7l-34.277.472-5.446-9.475-9.187,1.4-8.806,7.676,8.942,15.557a10.061,10.061,0,0,0,8.722,5.047h.139l40.19-.553a10.06,10.06,0,0,0-.136-20.12Z" transform="translate(-141.753 -123.702)"/><path class="i" d="M160.375,209.918H97.85L85.9,153.642a17.263,17.263,0,1,0-33.773,7.169L77.2,278.923a11.419,11.419,0,0,0,11.17,9.048H172a9.382,9.382,0,0,0,9.382-9.382V230.923A21.006,21.006,0,0,0,160.375,209.918Z" transform="translate(-51.748 -82.211)"/><path class="j" d="M185.948,181.336l17.993-9.072-12.58-21.885a10.061,10.061,0,0,0-17.445,10.027Z" transform="translate(-122.719 -85.363)"/></g></g></g></g></svg>