<svg xmlns="http://www.w3.org/2000/svg" width="72" height="72" viewBox="0 0 72 72"><defs><style>.a{fill:#edf3ff;}.b{fill:#98aef6;}</style></defs><g transform="translate(-262.434 -4344.434)"><rect class="a" width="72" height="72" rx="21" transform="translate(262.434 4344.434)"/><g transform="translate(216.227 4354.544)"><path class="b" d="M0,0H2.881V4.826H0Z" transform="translate(71.231 3.062) rotate(-28.693)"/><path class="b" d="M0,0H4.826V2.881H0Z" transform="translate(88.29 5.925) rotate(-61.307)"/><path class="b" d="M240.744,0h2.881V3.566h-2.881Z" transform="translate(-160.001)"/><path class="b" d="M0,0H3.566V2.881H0Z" transform="translate(96.109 8.707) rotate(-45)"/><path class="b" d="M0,0H2.881V3.566H0Z" transform="translate(63.864 8.22) rotate(-45)"/><path class="b" d="M63.744,203.333H77.67v3.618H63.744Z" transform="translate(0 -183.805)"/><path class="b" d="M302.744,203.333H316.67v3.618H302.744Z" transform="translate(-216.046 -183.805)"/><path class="b" d="M238.744,203.333h3.265v3.618h-3.265Z" transform="translate(-158.193 -183.805)"/><path class="b" d="M238.744,271h3.265v23.146h-3.265Z" transform="translate(-158.193 -244.973)"/><path class="b" d="M302.744,271h12v23.146h-12Z" transform="translate(-216.046 -244.973)"/><path class="b" d="M181.795,103.427a4.316,4.316,0,1,0-7.308-3.111,4.317,4.317,0,1,0-7.3,3.111Z" transform="translate(-92.303 -86.78)"/><path class="b" d="M83.814,271h12v23.146h-12Z" transform="translate(-18.142 -244.973)"/></g></g></svg>