<svg xmlns="http://www.w3.org/2000/svg" width="11.262" height="13.374" viewBox="0 0 11.262 13.374"><defs><style>.a{fill:#2c2c2c;}</style></defs><g transform="translate(-1.559)"><path class="a" d="M12.821,17.121H11.466A4.216,4.216,0,0,0,7.19,12.975a4.216,4.216,0,0,0-4.276,4.146H1.559a5.573,5.573,0,0,1,5.631-5.5A5.573,5.573,0,0,1,12.821,17.121Z" transform="translate(0 -3.746)"/><path class="a" d="M8.1,7.433a3.717,3.717,0,1,1,3.717-3.717A3.721,3.721,0,0,1,8.1,7.433Zm0-6.078a2.361,2.361,0,1,0,2.362,2.361A2.364,2.364,0,0,0,8.1,1.355Z" transform="translate(-0.911)"/></g></svg>